<svg width="224" height="167" viewBox="0 0 224 167" fill="none" xmlns="http://www.w3.org/2000/svg">
<path d="M223.167 146.129H0V146.241H223.167V146.129Z" fill="#EBEBEB"/>
<path d="M200.805 153.311H186.022V153.423H200.805V153.311Z" fill="#EBEBEB"/>
<path d="M147.834 154.525H143.956V154.637H147.834V154.525Z" fill="#EBEBEB"/>
<path d="M185.576 149.169H177.011V149.281H185.576V149.169Z" fill="#EBEBEB"/>
<path d="M42.6917 149.919H23.4146V150.03H42.6917V149.919Z" fill="#EBEBEB"/>
<path d="M49.4939 149.919H46.6686V150.03H49.4939V149.919Z" fill="#EBEBEB"/>
<path d="M100.492 151.802H58.6794V151.914H100.492V151.802Z" fill="#EBEBEB"/>
<path d="M105.781 126.223H19.5985C18.9233 126.222 18.2762 125.953 17.7993 125.475C17.3223 124.997 17.0544 124.35 17.0544 123.674V2.52625C17.0603 1.85497 17.3307 1.21312 17.8071 0.740118C18.2834 0.267112 18.9272 0.00114993 19.5985 0H105.781C106.457 0 107.105 0.268508 107.583 0.746457C108.061 1.2244 108.33 1.87264 108.33 2.54856V123.674C108.33 124.35 108.061 124.999 107.583 125.477C107.105 125.954 106.457 126.223 105.781 126.223ZM19.5985 0.0892669C18.9529 0.0904493 18.3342 0.347723 17.8782 0.804617C17.4221 1.26151 17.166 1.88069 17.166 2.52625V123.674C17.166 124.32 17.4221 124.939 17.8782 125.396C18.3342 125.853 18.9529 126.11 19.5985 126.111H105.781C106.427 126.11 107.046 125.853 107.503 125.396C107.96 124.94 108.217 124.32 108.218 123.674V2.52625C108.217 1.88028 107.96 1.26111 107.503 0.804344C107.046 0.347578 106.427 0.0904468 105.781 0.0892669H19.5985Z" fill="#EBEBEB"/>
<path d="M202.327 126.223H116.14C115.465 126.222 114.817 125.953 114.34 125.475C113.862 124.998 113.593 124.35 113.592 123.674V2.52625C113.599 1.85456 113.87 1.21272 114.347 0.739838C114.824 0.266956 115.469 0.00113739 116.14 0H202.327C202.998 0.00232294 203.64 0.268804 204.116 0.741684C204.591 1.21456 204.861 1.85574 204.867 2.52625V123.674C204.867 124.349 204.6 124.996 204.124 125.473C203.648 125.951 203.002 126.221 202.327 126.223ZM116.14 0.0892669C115.494 0.0904468 114.875 0.347578 114.418 0.804344C113.962 1.26111 113.704 1.88028 113.703 2.52625V123.674C113.704 124.32 113.962 124.94 114.418 125.396C114.875 125.853 115.494 126.11 116.14 126.111H202.327C202.973 126.11 203.592 125.853 204.049 125.396C204.506 124.94 204.763 124.32 204.764 123.674V2.52625C204.763 1.88028 204.506 1.26111 204.049 0.804344C203.592 0.347578 202.973 0.0904468 202.327 0.0892669H116.14Z" fill="#EBEBEB"/>
<path d="M108.164 53.0601H44.794V145.973H108.164V53.0601Z" fill="#F0F0F0"/>
<path d="M105.924 55.9836H47.0301V73.1451H105.924V55.9836Z" fill="#E0E0E0"/>
<path d="M50.3776 58.7597H47.0301V73.1406H50.3776V58.7597Z" fill="#EBEBEB"/>
<path d="M66.5572 58.7597H63.2097V73.1406H66.5572V58.7597Z" fill="#EBEBEB"/>
<path d="M84.9202 58.3985L81.6213 58.9672L84.0641 73.139L87.363 72.5704L84.9202 58.3985Z" fill="#EBEBEB"/>
<path d="M54.5241 60.6567H51.1766V73.1451H54.5241V60.6567Z" fill="#EBEBEB"/>
<path d="M62.2144 60.6567H58.8669V73.1451H62.2144V60.6567Z" fill="#EBEBEB"/>
<path d="M81.6254 60.6567H78.2779V73.1451H81.6254V60.6567Z" fill="#EBEBEB"/>
<path d="M70.9541 60.2233L67.6863 60.9496L70.3957 73.1405L73.6635 72.4143L70.9541 60.2233Z" fill="#EBEBEB"/>
<path d="M57.4163 58.0456H55.7426V73.1406H57.4163V58.0456Z" fill="#EBEBEB"/>
<path d="M77.3138 58.0456H75.6401V73.1406H77.3138V58.0456Z" fill="#EBEBEB"/>
<path d="M47.0346 93.0247L105.928 93.0247V75.8632H47.0346V93.0247Z" fill="#E0E0E0"/>
<path d="M102.576 93.0203H105.924V78.6394H102.576V93.0203Z" fill="#EBEBEB"/>
<path d="M86.4012 93.0203H89.7487V78.6394H86.4012V93.0203Z" fill="#EBEBEB"/>
<path d="M65.5963 92.4488L68.8951 93.0174L71.338 78.8456L68.0391 78.277L65.5963 92.4488Z" fill="#EBEBEB"/>
<path d="M98.4298 93.0247H101.777V80.5363H98.4298V93.0247Z" fill="#EBEBEB"/>
<path d="M90.744 93.0247H94.0915V80.5363H90.744V93.0247Z" fill="#EBEBEB"/>
<path d="M71.333 93.0247H74.6805V80.5363H71.333V93.0247Z" fill="#EBEBEB"/>
<path d="M79.3057 92.2951L82.5735 93.0214L85.2829 80.8304L82.0151 80.1042L79.3057 92.2951Z" fill="#EBEBEB"/>
<path d="M95.5376 93.0203H97.2114V77.9253H95.5376V93.0203Z" fill="#EBEBEB"/>
<path d="M75.6445 93.0203H77.3183V77.9253H75.6445V93.0203Z" fill="#EBEBEB"/>
<path d="M50.3776 78.6394H47.0301V93.0203H50.3776V78.6394Z" fill="#EBEBEB"/>
<path d="M54.5241 80.5319H51.1766V93.0203H54.5241V80.5319Z" fill="#EBEBEB"/>
<path d="M62.2144 80.5319H58.8669V93.0203H62.2144V80.5319Z" fill="#EBEBEB"/>
<path d="M57.4163 77.9253H55.7426V93.0203H57.4163V77.9253Z" fill="#EBEBEB"/>
<path d="M105.924 95.7384H47.0301V112.9H105.924V95.7384Z" fill="#E0E0E0"/>
<path d="M84.1829 98.5146H80.8354V112.895H84.1829V98.5146Z" fill="#EBEBEB"/>
<path d="M102.549 98.1524L99.2497 98.721L101.693 112.893L104.991 112.324L102.549 98.1524Z" fill="#EBEBEB"/>
<path d="M72.1497 100.412H68.8022V112.9H72.1497V100.412Z" fill="#EBEBEB"/>
<path d="M79.8401 100.412H76.4926V112.9H79.8401V100.412Z" fill="#EBEBEB"/>
<path d="M99.2511 100.412H95.9036V112.9H99.2511V100.412Z" fill="#EBEBEB"/>
<path d="M88.5812 99.9787L85.3135 100.705L88.0228 112.896L91.2906 112.17L88.5812 99.9787Z" fill="#EBEBEB"/>
<path d="M75.042 97.8005H73.3682V112.895H75.042V97.8005Z" fill="#EBEBEB"/>
<path d="M94.9395 97.8005H93.2657V112.895H94.9395V97.8005Z" fill="#EBEBEB"/>
<path d="M64.0582 98.1557L60.7593 98.7243L63.2021 112.896L66.501 112.328L64.0582 98.1557Z" fill="#EBEBEB"/>
<path d="M60.7593 100.412H57.4118V112.9H60.7593V100.412Z" fill="#EBEBEB"/>
<path d="M50.0913 99.9787L46.8235 100.705L49.5329 112.896L52.8006 112.17L50.0913 99.9787Z" fill="#EBEBEB"/>
<path d="M56.4522 97.8005H54.7784V112.895H56.4522V97.8005Z" fill="#EBEBEB"/>
<path d="M33.8588 146.214H44.794L44.794 53.0601H33.8588L33.8588 146.214Z" fill="#E0E0E0"/>
<path d="M145.255 143.782H135.966L140.849 103.996C140.966 103.164 141.375 102.402 142.002 101.843C142.629 101.285 143.433 100.967 144.273 100.947H184.782L178.841 143.764L145.255 143.782Z" fill="#F5F5F5"/>
<path d="M174.713 143.782H184.001L188.888 103.996C188.948 103.613 188.923 103.222 188.815 102.851C188.706 102.479 188.518 102.136 188.263 101.845C188.007 101.554 187.691 101.323 187.336 101.168C186.982 101.013 186.597 100.937 186.21 100.947H183.019C182.181 100.973 181.379 101.292 180.753 101.849C180.128 102.407 179.718 103.167 179.596 103.996L174.713 143.782Z" fill="#F0F0F0"/>
<path d="M171.294 143.719L172.976 124.482C173.012 124.065 173.189 123.672 173.479 123.37C173.769 123.068 174.154 122.875 174.57 122.822L175.262 122.733C175.82 122.663 176.337 122.403 176.727 121.996C177.116 121.59 177.354 121.062 177.4 120.501L177.708 116.993C177.738 116.653 177.697 116.31 177.588 115.987C177.478 115.663 177.303 115.366 177.072 115.114C176.842 114.862 176.561 114.661 176.249 114.523C175.936 114.386 175.599 114.315 175.257 114.315H190.781C191.122 114.315 191.46 114.386 191.772 114.523C192.085 114.661 192.365 114.862 192.596 115.114C192.826 115.366 193.002 115.663 193.111 115.987C193.221 116.31 193.261 116.653 193.231 116.993L192.923 120.501C192.877 121.062 192.64 121.59 192.25 121.996C191.861 122.403 191.344 122.663 190.785 122.733L190.093 122.822C189.678 122.875 189.294 123.069 189.004 123.371C188.714 123.673 188.536 124.065 188.5 124.482L186.817 143.719C186.757 144.395 186.446 145.024 185.946 145.483C185.445 145.941 184.791 146.196 184.112 146.196H168.589C169.268 146.196 169.922 145.941 170.422 145.483C170.923 145.024 171.234 144.395 171.294 143.719Z" fill="#E6E6E6"/>
<path d="M128.571 119.684C128.448 118.224 127.781 116.863 126.702 115.871C125.623 114.879 124.212 114.329 122.746 114.328H136.261C137.723 114.334 139.129 114.887 140.203 115.879C141.277 116.87 141.941 118.228 142.063 119.684L143.402 134.931H129.905L128.571 119.684Z" fill="#E6E6E6"/>
<path d="M116.743 114.346H122.742C124.207 114.346 125.619 114.897 126.698 115.889C127.776 116.881 128.443 118.242 128.566 119.702L129.905 134.949H162.095L163.434 119.702C163.555 118.245 164.219 116.887 165.293 115.895C166.367 114.904 167.774 114.351 169.236 114.346H175.239C175.581 114.346 175.918 114.417 176.231 114.555C176.544 114.692 176.824 114.893 177.054 115.145C177.285 115.397 177.461 115.694 177.57 116.018C177.679 116.341 177.72 116.684 177.69 117.024L177.382 120.532C177.336 121.093 177.098 121.621 176.709 122.028C176.32 122.434 175.802 122.694 175.244 122.764L174.552 122.853C174.136 122.906 173.752 123.099 173.462 123.402C173.172 123.704 172.994 124.096 172.959 124.514L171.294 143.719C171.234 144.395 170.923 145.024 170.422 145.483C169.922 145.941 169.268 146.196 168.589 146.196H123.411C122.732 146.196 122.078 145.941 121.578 145.483C121.077 145.024 120.766 144.395 120.706 143.719L119.024 124.482C118.987 124.066 118.808 123.674 118.519 123.372C118.229 123.07 117.845 122.876 117.43 122.822L116.738 122.733C116.18 122.662 115.662 122.402 115.272 121.996C114.882 121.59 114.644 121.062 114.596 120.501L114.292 116.993C114.267 116.655 114.311 116.316 114.422 115.996C114.534 115.676 114.71 115.383 114.94 115.135C115.17 114.886 115.449 114.688 115.759 114.552C116.069 114.416 116.404 114.346 116.743 114.346Z" fill="#F0F0F0"/>
<path d="M45.5974 48.4182C45.5974 48.4182 45.102 45.1555 47.4809 43.0622C49.8599 40.9689 49.6501 39.7281 48.9672 39.5674C48.2843 39.4067 47.6639 41.4956 46.6195 42.0714C46.6195 42.0714 46.5838 39.0899 47.6461 37.9963C48.7084 36.9028 49.2663 34.0686 48.2531 34.0195C47.2399 33.9704 47.1417 35.6977 46.9141 36.9251C46.6865 38.1526 45.5751 39.8754 45.5751 39.8754C45.5751 39.8754 45.3564 37.1974 44.6824 36.1128C44.0085 35.0282 45.825 32.5064 45.1288 31.4129C44.4325 30.3194 43.1694 32.4038 43.272 34.756C43.3747 37.1081 44.9458 39.6165 44.5798 42.0714C44.5798 42.0714 43.888 40.344 43.2676 40.1878C42.6472 40.0316 42.0178 38.8935 41.6027 38.4694C41.1876 38.0454 40.661 39.5094 41.6027 40.8663C42.5445 42.2231 44.9458 45.8607 44.5798 48.7976L45.5974 48.4182Z" fill="#E6E6E6"/>
<path d="M47.0167 46.9319L47.7978 51.8193C47.8539 52.1741 47.8325 52.5369 47.7349 52.8827C47.6374 53.2284 47.466 53.5489 47.2327 53.8221C46.9994 54.0953 46.7097 54.3147 46.3834 54.4651C46.0572 54.6156 45.7022 54.6935 45.343 54.6936H44.5128C44.1536 54.6935 43.7986 54.6156 43.4724 54.4651C43.1461 54.3147 42.8564 54.0953 42.6231 53.8221C42.3898 53.5489 42.2184 53.2284 42.1209 52.8827C42.0233 52.5369 42.0019 52.1741 42.058 51.8193L42.848 46.9319H47.0167Z" fill="#E6E6E6"/>
<path d="M93.7523 53.7385H96.1758V43.3166H93.7523V53.7385Z" fill="#EBEBEB"/>
<path d="M82.0315 53.7385H84.4551V43.3166H82.0315V53.7385Z" fill="#EBEBEB"/>
<path d="M66.9563 53.3243L69.3447 53.7359L71.115 43.4655L68.7266 43.0538L66.9563 53.3243Z" fill="#EBEBEB"/>
<path d="M90.7484 53.734H93.172V44.6869H90.7484V53.734Z" fill="#EBEBEB"/>
<path d="M85.1782 53.734H87.6018V44.6869H85.1782V53.734Z" fill="#EBEBEB"/>
<path d="M71.1098 53.734H73.5334V44.6869H71.1098V53.734Z" fill="#EBEBEB"/>
<path d="M76.8899 53.2092L79.2558 53.735L81.2186 44.9033L78.8527 44.3775L76.8899 53.2092Z" fill="#EBEBEB"/>
<path d="M88.6507 53.7385H89.8647V42.7989H88.6507V53.7385Z" fill="#EBEBEB"/>
<path d="M74.2296 53.7385H75.4437V42.7989H74.2296V53.7385Z" fill="#EBEBEB"/>
<path d="M65.5887 45.4635H53.7742V53.618H65.5887V45.4635Z" fill="#EBEBEB"/>
<path d="M106.107 48.8021H96.2115V54.89H106.107V48.8021Z" fill="#EBEBEB"/>
<path d="M103.795 43.4505H98.8449V49.5385H103.795V43.4505Z" fill="#EBEBEB"/>
<path d="M186.482 35.3942H174.713V84.4373H186.482V35.3942Z" fill="#E0E0E0"/>
<path d="M141.202 84.5712H185.219V35.3987L141.202 35.3987V84.5712Z" fill="#E0E0E0"/>
<path d="M139.783 84.5712H185.451V35.3987L139.783 35.3987V84.5712Z" fill="#F0F0F0"/>
<path d="M141.738 82.3083H183.577V36.9608L141.738 36.9608V82.3083Z" fill="white"/>
<path d="M141.733 82.3083H142.51V36.9608H141.733V82.3083Z" fill="#E0E0E0"/>
<path d="M142.385 69.5744V70.7973H183.688V69.5744H142.385Z" fill="#E0E0E0"/>
<path d="M141.733 69.5699H184.228V67.5168H141.733V69.5699Z" fill="#F0F0F0"/>
<path d="M111.583 166.286C159.378 166.286 198.123 164.024 198.123 161.233C198.123 158.443 159.378 156.181 111.583 156.181C63.7888 156.181 25.0438 158.443 25.0438 161.233C25.0438 164.024 63.7888 166.286 111.583 166.286Z" fill="#F5F5F5"/>
<path d="M143.697 43.6603H63.8435C62.0391 43.6603 60.5764 45.1231 60.5764 46.9275V140.952C60.5764 142.756 62.0391 144.219 63.8435 144.219H143.697C145.501 144.219 146.964 142.756 146.964 140.952V46.9275C146.964 45.1231 145.501 43.6603 143.697 43.6603Z" fill="#BC63F2"/>
<path opacity="0.6" d="M143.697 43.6603H63.8435C62.0391 43.6603 60.5764 45.1231 60.5764 46.9275V140.952C60.5764 142.756 62.0391 144.219 63.8435 144.219H143.697C145.501 144.219 146.964 142.756 146.964 140.952V46.9275C146.964 45.1231 145.501 43.6603 143.697 43.6603Z" fill="white"/>
<path d="M132.972 89.7799H74.5733V99.7778H132.972V89.7799Z" fill="white"/>
<g opacity="0.4">
<path d="M79.7955 95.7518V96.0152H77.7691V93.1497H79.733V93.4086H78.0726V94.4307H79.5544V94.6851H78.0726V95.7518H79.7955Z" fill="#263238"/>
<path d="M80.2017 94.7788H81.2773V95.0288H80.2017V94.7788Z" fill="#263238"/>
<path d="M85.4773 94.7654V96.0152H85.1872V94.7922C85.1872 94.3459 84.9596 94.1049 84.5713 94.1049C84.4706 94.1002 84.3701 94.1176 84.2769 94.1558C84.1836 94.194 84.0998 94.2521 84.0314 94.3261C83.9629 94.4001 83.9115 94.4881 83.8806 94.584C83.8497 94.68 83.8402 94.7815 83.8527 94.8815V96.0152H83.5581V94.7922C83.5581 94.3459 83.3305 94.1049 82.9377 94.1049C82.837 94.1002 82.7365 94.1176 82.6433 94.1558C82.55 94.194 82.4662 94.2521 82.3978 94.3261C82.3294 94.4001 82.2779 94.4881 82.247 94.584C82.2162 94.68 82.2066 94.7815 82.2191 94.8815V96.0152H81.9245V93.8594H82.2057V94.2522C82.2899 94.1206 82.4072 94.0134 82.5458 93.9413C82.6845 93.8693 82.8396 93.8348 82.9957 93.8415C83.1534 93.8282 83.3114 93.8639 83.448 93.9438C83.5846 94.0237 83.6932 94.1439 83.7589 94.2879C83.8481 94.144 83.9743 94.0267 84.1242 93.9482C84.2741 93.8697 84.4424 93.8329 84.6114 93.8415C84.7326 93.8323 84.8542 93.8504 84.9675 93.8944C85.0807 93.9385 85.1826 94.0074 85.2657 94.096C85.3488 94.1847 85.4109 94.2908 85.4476 94.4067C85.4842 94.5225 85.4943 94.6451 85.4773 94.7654Z" fill="#263238"/>
<path d="M87.8964 94.6762V96.0152H87.6153V95.6759C87.5354 95.7967 87.4244 95.8936 87.294 95.9565C87.1635 96.0193 87.0186 96.0458 86.8743 96.033C86.3878 96.033 86.0888 95.7786 86.0888 95.4081C86.0888 95.0377 86.303 94.7967 86.919 94.7967H87.6019V94.6672C87.6019 94.2968 87.3966 94.0959 86.9949 94.0959C86.7328 94.093 86.4781 94.1831 86.2763 94.3503L86.1468 94.1361C86.399 93.9332 86.7161 93.8286 87.0395 93.8415C87.1534 93.8277 87.269 93.8395 87.3777 93.8762C87.4865 93.9129 87.5856 93.9736 87.6678 94.0536C87.75 94.1337 87.8133 94.2312 87.8528 94.3389C87.8924 94.4467 87.9073 94.5619 87.8964 94.6762ZM87.6019 95.368V95.0154H86.9279C86.5128 95.0154 86.3745 95.176 86.3745 95.3992C86.3745 95.6224 86.5753 95.8054 86.919 95.8054C87.0646 95.815 87.2095 95.7777 87.3324 95.699C87.4553 95.6203 87.5497 95.5043 87.6019 95.368Z" fill="#263238"/>
<path d="M88.6194 93.1809C88.62 93.1534 88.626 93.1262 88.6371 93.101C88.6482 93.0758 88.6641 93.053 88.684 93.0339C88.7039 93.0148 88.7274 92.9999 88.7531 92.9899C88.7787 92.9799 88.8061 92.975 88.8337 92.9756C88.8606 92.975 88.8875 92.9798 88.9126 92.9895C88.9377 92.9993 88.9607 93.0139 88.9802 93.0326C88.9997 93.0513 89.0153 93.0736 89.0261 93.0983C89.037 93.1229 89.0429 93.1495 89.0435 93.1765C89.0441 93.2044 89.0391 93.2322 89.0288 93.2581C89.0185 93.2841 89.0032 93.3078 88.9836 93.3277C88.9641 93.3477 88.9408 93.3635 88.915 93.3743C88.8893 93.3852 88.8616 93.3907 88.8337 93.3907C88.8058 93.3913 88.778 93.3863 88.752 93.3761C88.7261 93.3658 88.7024 93.3504 88.6825 93.3309C88.6625 93.3113 88.6467 93.288 88.6358 93.2623C88.625 93.2365 88.6194 93.2089 88.6194 93.1809ZM88.6864 93.8594H88.9765V96.0152H88.6864V93.8594Z" fill="#263238"/>
<path d="M89.7844 92.9756H90.0745V96.0152H89.7844V92.9756Z" fill="#263238"/>
</g>
<path d="M132.972 103.438H74.5733V113.436H132.972V103.438Z" fill="white"/>
<g opacity="0.4">
<path d="M80.0097 107.803C80.0097 108.414 79.5634 108.785 78.8403 108.785H78.0726V109.677H77.7691V106.812H78.8403C79.5678 106.821 80.0097 107.191 80.0097 107.803ZM79.7062 107.803C79.7062 107.357 79.4071 107.084 78.8135 107.084H78.0548V108.517H78.8135C79.4071 108.517 79.7062 108.254 79.7062 107.803Z" fill="#263238"/>
<path d="M82.2101 108.352V109.691H81.9289V109.352C81.8491 109.472 81.738 109.569 81.6076 109.632C81.4772 109.695 81.3322 109.721 81.188 109.709C80.7015 109.709 80.4025 109.454 80.4025 109.079C80.4025 108.704 80.6167 108.459 81.2326 108.459H81.9155V108.325C81.9155 107.959 81.7058 107.758 81.3041 107.758C81.0432 107.755 80.7898 107.845 80.5899 108.013L80.456 107.794C80.7103 107.595 81.0263 107.493 81.3487 107.504C81.4642 107.489 81.5816 107.5 81.692 107.537C81.8024 107.575 81.9029 107.636 81.9859 107.718C82.0689 107.8 82.1322 107.899 82.1711 108.009C82.2099 108.119 82.2233 108.236 82.2101 108.352ZM81.92 109.039V108.687H81.2326C80.8176 108.687 80.6837 108.852 80.6837 109.075C80.6837 109.298 80.88 109.477 81.2282 109.477C81.3752 109.487 81.5217 109.451 81.6463 109.372C81.7709 109.293 81.8668 109.177 81.92 109.039Z" fill="#263238"/>
<path d="M82.7011 109.441L82.8306 109.213C83.0557 109.37 83.3237 109.455 83.5982 109.454C84.0044 109.454 84.174 109.316 84.174 109.102C84.174 108.539 82.777 108.981 82.777 108.133C82.777 107.781 83.0805 107.517 83.6295 107.517C83.8973 107.515 84.1608 107.584 84.3927 107.718L84.2633 107.95C84.0755 107.826 83.8544 107.762 83.6295 107.767C83.2412 107.767 83.0671 107.919 83.0671 108.124C83.0671 108.704 84.4641 108.267 84.4641 109.093C84.4641 109.468 84.1383 109.709 83.5715 109.709C83.2599 109.717 82.9542 109.623 82.7011 109.441Z" fill="#263238"/>
<path d="M84.7006 109.441L84.8345 109.213C85.0571 109.372 85.3243 109.457 85.5977 109.454C86.0084 109.454 86.1735 109.316 86.1735 109.102C86.1735 108.539 84.781 108.981 84.781 108.133C84.781 107.781 85.0845 107.517 85.629 107.517C85.8969 107.514 86.1607 107.583 86.3922 107.718L86.2672 107.95C86.0776 107.827 85.8553 107.763 85.629 107.767C85.2407 107.767 85.0711 107.919 85.0711 108.124C85.0711 108.704 86.4681 108.267 86.4681 109.093C86.4681 109.468 86.1378 109.709 85.5754 109.709C85.2626 109.716 84.9557 109.622 84.7006 109.441Z" fill="#263238"/>
<path d="M90.1192 107.535L89.3069 109.686H89.0346L88.374 107.923L87.6956 109.686H87.4233L86.5887 107.535H86.8654L87.5438 109.365L88.2357 107.535H88.4856L89.1729 109.365L89.8558 107.535H90.1192Z" fill="#263238"/>
<path d="M90.2799 108.611C90.2799 108.394 90.3443 108.181 90.4649 108.001C90.5855 107.82 90.757 107.679 90.9577 107.596C91.1583 107.513 91.379 107.491 91.592 107.534C91.805 107.576 92.0007 107.681 92.1542 107.834C92.3078 107.988 92.4124 108.184 92.4547 108.396C92.4971 108.609 92.4753 108.83 92.3922 109.031C92.3091 109.232 92.1684 109.403 91.9878 109.524C91.8073 109.644 91.595 109.709 91.3778 109.709C91.2323 109.714 91.0873 109.689 90.9518 109.635C90.8164 109.582 90.6933 109.501 90.5904 109.398C90.4874 109.295 90.4067 109.172 90.3533 109.037C90.2999 108.901 90.2749 108.756 90.2799 108.611ZM92.1768 108.611C92.1698 108.453 92.1166 108.301 92.024 108.174C91.9314 108.047 91.8034 107.949 91.6558 107.894C91.5083 107.839 91.3478 107.828 91.1942 107.863C91.0407 107.899 90.9009 107.978 90.7923 108.092C90.6837 108.207 90.611 108.35 90.5833 108.505C90.5556 108.66 90.5741 108.82 90.6365 108.965C90.6989 109.109 90.8024 109.232 90.9342 109.319C91.066 109.405 91.2203 109.451 91.3778 109.45C91.4868 109.452 91.595 109.431 91.6955 109.389C91.7961 109.347 91.8868 109.285 91.962 109.206C92.0371 109.127 92.095 109.033 92.132 108.931C92.169 108.828 92.1842 108.719 92.1768 108.611Z" fill="#263238"/>
<path d="M94.1495 107.517V107.798H94.0781C93.976 107.793 93.8741 107.811 93.7796 107.85C93.6851 107.889 93.6003 107.948 93.5313 108.024C93.4623 108.099 93.4107 108.189 93.3802 108.286C93.3498 108.384 93.3412 108.487 93.3551 108.588V109.686H93.0649V107.535H93.3417V107.955C93.4169 107.809 93.5342 107.69 93.6783 107.612C93.8223 107.534 93.9865 107.501 94.1495 107.517Z" fill="#263238"/>
<path d="M96.6178 106.674V109.709H96.341V109.285C96.2544 109.426 96.132 109.541 95.9861 109.62C95.8403 109.698 95.6763 109.737 95.5109 109.731C95.2323 109.713 94.971 109.59 94.7801 109.386C94.5891 109.183 94.4828 108.914 94.4828 108.635C94.4828 108.356 94.5891 108.088 94.7801 107.884C94.971 107.68 95.2323 107.557 95.5109 107.54C95.6742 107.536 95.8356 107.575 95.9789 107.654C96.1222 107.732 96.2425 107.846 96.3277 107.986V106.674H96.6178ZM96.3321 108.633C96.3251 108.476 96.272 108.324 96.1794 108.196C96.0868 108.069 95.9587 107.972 95.8112 107.916C95.6636 107.861 95.5031 107.85 95.3496 107.886C95.1961 107.921 95.0563 108.001 94.9477 108.115C94.839 108.229 94.7663 108.372 94.7386 108.527C94.7109 108.682 94.7294 108.842 94.7918 108.987C94.8542 109.132 94.9577 109.255 95.0896 109.341C95.2214 109.427 95.3756 109.473 95.5332 109.472C95.6442 109.475 95.7544 109.453 95.8566 109.41C95.9588 109.367 96.0507 109.302 96.1262 109.221C96.2017 109.14 96.2591 109.043 96.2946 108.938C96.3301 108.833 96.3429 108.721 96.3321 108.611V108.633Z" fill="#263238"/>
</g>
<path opacity="0.2" d="M132.972 123.634H74.5733V133.632H132.972V123.634Z" fill="black"/>
<g opacity="0.5">
<path d="M88.7757 119.042H87.8205L87.6152 119.488H87.4277L88.2088 117.778H88.3873L89.1684 119.488H88.981L88.7757 119.042ZM88.7087 118.894L88.2981 117.975L87.8875 118.894H88.7087Z" fill="black"/>
<path d="M89.4183 117.685H89.5924V119.497H89.4183V117.685Z" fill="black"/>
<path d="M90.7261 118.202V118.372H90.6815C90.6192 118.367 90.5565 118.375 90.498 118.398C90.4396 118.42 90.387 118.455 90.344 118.501C90.3011 118.546 90.269 118.601 90.2502 118.66C90.2313 118.72 90.2262 118.783 90.2352 118.845V119.501H90.0611V118.216H90.2307V118.466C90.2755 118.376 90.3473 118.302 90.4362 118.255C90.525 118.207 90.6264 118.189 90.7261 118.202Z" fill="black"/>
<path d="M92.1455 118.908H91.0519C91.0553 118.97 91.0711 119.031 91.0984 119.088C91.1257 119.144 91.1639 119.195 91.2108 119.236C91.2577 119.278 91.3124 119.31 91.3717 119.33C91.4311 119.35 91.4938 119.358 91.5563 119.354C91.6305 119.357 91.7043 119.343 91.7729 119.315C91.8414 119.286 91.903 119.243 91.9535 119.189L92.0473 119.3C91.955 119.397 91.8362 119.465 91.7057 119.494C91.5753 119.524 91.439 119.514 91.314 119.466C91.1891 119.419 91.081 119.335 91.0034 119.226C90.9258 119.117 90.8821 118.988 90.8779 118.854C90.8736 118.769 90.8868 118.684 90.9166 118.605C90.9464 118.525 90.9922 118.453 91.0512 118.392C91.1102 118.331 91.1811 118.282 91.2596 118.25C91.338 118.217 91.4223 118.201 91.5072 118.202C91.5921 118.2 91.6765 118.216 91.755 118.248C91.8336 118.281 91.9045 118.329 91.9633 118.39C92.0221 118.452 92.0674 118.525 92.0965 118.604C92.1256 118.684 92.1377 118.769 92.1321 118.854C92.1321 118.854 92.1455 118.89 92.1455 118.908ZM91.0698 118.778H91.9625C91.9625 118.66 91.9154 118.546 91.8317 118.463C91.748 118.379 91.6345 118.332 91.5161 118.332C91.3977 118.332 91.2842 118.379 91.2005 118.463C91.1168 118.546 91.0698 118.66 91.0698 118.778Z" fill="black"/>
<path d="M93.4353 118.725V119.519H93.2836V119.318C93.2362 119.392 93.1695 119.451 93.0907 119.488C93.0119 119.526 92.9242 119.541 92.8373 119.532C92.5471 119.532 92.3909 119.381 92.3909 119.158C92.3909 118.934 92.5159 118.792 92.8864 118.792H93.2836V118.716C93.2836 118.497 93.1586 118.376 92.9176 118.376C92.7552 118.37 92.5963 118.424 92.4713 118.528L92.3954 118.399C92.5433 118.281 92.7284 118.219 92.9176 118.225C92.9867 118.213 93.0576 118.217 93.1245 118.238C93.1915 118.259 93.2527 118.295 93.3031 118.344C93.3535 118.392 93.3917 118.452 93.4147 118.518C93.4377 118.584 93.4448 118.655 93.4353 118.725ZM93.2657 119.135V118.921H92.8596C92.6096 118.921 92.5293 119.019 92.5293 119.153C92.5293 119.287 92.6498 119.394 92.8551 119.394C92.9476 119.401 93.0398 119.377 93.1173 119.327C93.1948 119.276 93.2533 119.201 93.2836 119.113L93.2657 119.135Z" fill="black"/>
<path d="M95.0689 117.685V119.497H94.9038V119.242C94.8531 119.328 94.7803 119.397 94.693 119.445C94.6058 119.492 94.5074 119.514 94.4084 119.51C94.2443 119.497 94.0913 119.422 93.9798 119.301C93.8682 119.18 93.8063 119.021 93.8063 118.856C93.8063 118.692 93.8682 118.533 93.9798 118.412C94.0913 118.291 94.2443 118.216 94.4084 118.202C94.5051 118.2 94.6008 118.222 94.6867 118.266C94.7726 118.311 94.8457 118.376 94.8993 118.457V117.685H95.0689ZM94.8993 118.854C94.895 118.761 94.8633 118.671 94.8082 118.595C94.7532 118.52 94.6771 118.462 94.5896 118.429C94.502 118.396 94.4068 118.39 94.3157 118.411C94.2245 118.432 94.1415 118.479 94.077 118.546C94.0124 118.614 93.9691 118.699 93.9524 118.791C93.9357 118.883 93.9464 118.978 93.9831 119.064C94.0198 119.15 94.0809 119.223 94.1589 119.275C94.2369 119.326 94.3283 119.354 94.4218 119.354C94.4882 119.358 94.5548 119.348 94.617 119.324C94.6792 119.3 94.7356 119.263 94.7825 119.216C94.8294 119.169 94.8656 119.112 94.8889 119.05C94.9121 118.987 94.9218 118.92 94.9172 118.854H94.8993Z" fill="black"/>
<path d="M96.6534 118.211L96.0107 119.653C95.9036 119.903 95.7652 119.983 95.5644 119.983C95.4492 119.986 95.3372 119.945 95.252 119.867L95.3323 119.738C95.395 119.801 95.4801 119.836 95.5688 119.836C95.6849 119.836 95.7608 119.782 95.8366 119.617L95.8902 119.497L95.3144 118.211H95.5153L96.0018 119.305L96.4838 118.211H96.6534Z" fill="black"/>
<path d="M98.5101 118.725V119.519H98.345V119.318C98.2976 119.392 98.2309 119.451 98.1521 119.488C98.0733 119.526 97.9856 119.541 97.8987 119.532C97.6085 119.532 97.4523 119.381 97.4523 119.158C97.4523 118.934 97.5773 118.792 97.9478 118.792H98.3539V118.716C98.3539 118.497 98.2334 118.376 97.9924 118.376C97.83 118.37 97.6711 118.424 97.5461 118.528L97.4657 118.399C97.6154 118.281 97.8019 118.219 97.9924 118.225C98.0615 118.213 98.1324 118.217 98.1993 118.238C98.2663 118.259 98.3275 118.295 98.3779 118.344C98.4283 118.392 98.4665 118.452 98.4895 118.518C98.5125 118.584 98.5196 118.655 98.5101 118.725ZM98.3361 119.135V118.921H97.9344C97.6844 118.921 97.6041 119.019 97.6041 119.153C97.6041 119.287 97.7246 119.394 97.9299 119.394C98.019 119.398 98.1067 119.372 98.18 119.321C98.2533 119.271 98.3081 119.198 98.3361 119.113V119.135Z" fill="black"/>
<path d="M101.764 118.751V119.497H101.594V118.769C101.594 118.497 101.456 118.359 101.224 118.359C101.164 118.354 101.104 118.362 101.048 118.383C100.991 118.404 100.94 118.436 100.898 118.479C100.855 118.521 100.823 118.572 100.802 118.629C100.781 118.685 100.773 118.745 100.778 118.805V119.479H100.608V118.769C100.608 118.497 100.47 118.359 100.233 118.359C100.173 118.354 100.113 118.362 100.057 118.383C100.001 118.404 99.9494 118.436 99.907 118.479C99.8646 118.521 99.8318 118.572 99.8111 118.629C99.7903 118.685 99.782 118.745 99.7867 118.805V119.479H99.6126V118.193H99.7778V118.43C99.8269 118.35 99.897 118.285 99.9803 118.242C100.064 118.198 100.157 118.179 100.251 118.185C100.344 118.177 100.438 118.2 100.518 118.248C100.598 118.297 100.661 118.37 100.697 118.457C100.749 118.369 100.824 118.298 100.914 118.25C101.003 118.202 101.104 118.179 101.206 118.185C101.283 118.171 101.362 118.176 101.437 118.2C101.512 118.224 101.579 118.265 101.634 118.321C101.689 118.377 101.73 118.445 101.752 118.52C101.775 118.595 101.779 118.675 101.764 118.751Z" fill="black"/>
<path d="M103.344 118.908H102.268C102.277 119.034 102.336 119.152 102.431 119.235C102.526 119.319 102.651 119.361 102.777 119.354C102.851 119.357 102.924 119.343 102.992 119.315C103.06 119.286 103.12 119.243 103.17 119.189L103.268 119.3C103.205 119.369 103.129 119.423 103.043 119.459C102.958 119.495 102.865 119.513 102.773 119.51C102.684 119.516 102.596 119.503 102.512 119.472C102.429 119.441 102.353 119.394 102.29 119.332C102.226 119.27 102.177 119.195 102.144 119.113C102.111 119.031 102.095 118.943 102.099 118.854C102.099 118.688 102.165 118.529 102.282 118.412C102.399 118.295 102.558 118.229 102.724 118.229C102.889 118.229 103.048 118.295 103.165 118.412C103.283 118.529 103.348 118.688 103.348 118.854C103.348 118.854 103.344 118.89 103.344 118.908ZM102.268 118.778H103.183C103.183 118.657 103.135 118.54 103.049 118.455C102.964 118.369 102.847 118.321 102.726 118.321C102.604 118.321 102.488 118.369 102.402 118.455C102.317 118.54 102.268 118.657 102.268 118.778Z" fill="black"/>
<path d="M105.826 118.751V119.497H105.652V118.769C105.652 118.497 105.518 118.359 105.286 118.359C105.226 118.353 105.165 118.361 105.108 118.381C105.052 118.402 105 118.435 104.958 118.477C104.915 118.52 104.882 118.571 104.862 118.628C104.841 118.685 104.834 118.745 104.839 118.805V119.479H104.665V118.769C104.665 118.497 104.531 118.359 104.295 118.359C104.235 118.353 104.174 118.361 104.118 118.381C104.061 118.402 104.009 118.435 103.967 118.477C103.924 118.52 103.892 118.571 103.871 118.628C103.851 118.685 103.843 118.745 103.848 118.805V119.479H103.674V118.193H103.839V118.43C103.888 118.35 103.958 118.284 104.042 118.241C104.125 118.198 104.219 118.178 104.313 118.185C104.406 118.177 104.5 118.2 104.58 118.248C104.66 118.297 104.723 118.37 104.759 118.457C104.811 118.369 104.886 118.298 104.975 118.25C105.065 118.202 105.166 118.179 105.268 118.185C105.345 118.171 105.424 118.176 105.499 118.2C105.573 118.224 105.641 118.265 105.696 118.321C105.751 118.377 105.791 118.445 105.814 118.52C105.837 118.595 105.841 118.675 105.826 118.751Z" fill="black"/>
<path d="M107.602 118.854C107.606 118.94 107.593 119.026 107.563 119.106C107.532 119.186 107.486 119.26 107.426 119.321C107.366 119.383 107.294 119.431 107.214 119.464C107.135 119.496 107.05 119.512 106.964 119.51C106.865 119.514 106.766 119.492 106.679 119.445C106.592 119.397 106.519 119.328 106.468 119.242V119.497H106.299V117.685H106.473V118.457C106.526 118.376 106.599 118.31 106.685 118.266C106.771 118.221 106.867 118.199 106.964 118.202C107.049 118.2 107.135 118.215 107.214 118.247C107.294 118.279 107.366 118.327 107.426 118.388C107.486 118.45 107.532 118.523 107.563 118.603C107.593 118.683 107.606 118.768 107.602 118.854ZM107.428 118.854C107.424 118.761 107.392 118.671 107.337 118.595C107.282 118.52 107.206 118.462 107.118 118.429C107.031 118.396 106.935 118.39 106.844 118.411C106.753 118.432 106.67 118.479 106.606 118.546C106.541 118.614 106.498 118.699 106.481 118.791C106.464 118.883 106.475 118.978 106.512 119.064C106.548 119.15 106.61 119.223 106.687 119.275C106.765 119.326 106.857 119.354 106.95 119.354C107.015 119.355 107.08 119.343 107.14 119.318C107.2 119.293 107.254 119.256 107.299 119.209C107.344 119.162 107.379 119.106 107.401 119.045C107.423 118.984 107.432 118.919 107.428 118.854Z" fill="black"/>
<path d="M109.079 118.908H108.013C108.016 118.97 108.032 119.031 108.059 119.088C108.086 119.144 108.125 119.195 108.171 119.236C108.218 119.278 108.273 119.31 108.332 119.33C108.392 119.35 108.454 119.358 108.517 119.354C108.591 119.354 108.664 119.337 108.732 119.306C108.799 119.274 108.858 119.228 108.905 119.171L109.003 119.283C108.911 119.379 108.792 119.447 108.662 119.476C108.531 119.506 108.395 119.496 108.27 119.449C108.145 119.401 108.037 119.317 107.96 119.208C107.882 119.099 107.838 118.97 107.834 118.836C107.83 118.751 107.843 118.667 107.873 118.587C107.903 118.508 107.948 118.435 108.007 118.374C108.066 118.313 108.137 118.264 108.216 118.232C108.294 118.199 108.378 118.183 108.463 118.185C108.548 118.182 108.632 118.198 108.711 118.231C108.789 118.263 108.86 118.311 108.918 118.373C108.976 118.434 109.021 118.507 109.05 118.587C109.079 118.667 109.09 118.752 109.084 118.836L109.079 118.908ZM108.004 118.778H108.896C108.896 118.66 108.849 118.546 108.766 118.463C108.682 118.379 108.568 118.332 108.45 118.332C108.332 118.332 108.218 118.379 108.134 118.463C108.051 118.546 108.004 118.66 108.004 118.778Z" fill="black"/>
<path d="M110.084 118.202V118.372H110.043C109.981 118.367 109.918 118.375 109.86 118.398C109.801 118.42 109.749 118.455 109.706 118.501C109.663 118.546 109.631 118.601 109.612 118.66C109.593 118.72 109.588 118.783 109.597 118.845V119.501H109.423V118.216H109.588V118.466C109.633 118.376 109.705 118.303 109.794 118.255C109.883 118.208 109.984 118.19 110.084 118.202Z" fill="black"/>
<path d="M111.208 118.225C111.208 118.046 111.065 117.926 110.816 117.926C110.728 117.921 110.64 117.936 110.559 117.97C110.477 118.004 110.405 118.056 110.347 118.122L110.217 118.024C110.294 117.938 110.388 117.87 110.494 117.826C110.6 117.782 110.714 117.763 110.829 117.769C111.173 117.769 111.391 117.935 111.391 118.216C111.391 118.631 110.945 118.662 110.945 119.001H110.762C110.762 118.582 111.208 118.542 111.208 118.225ZM110.726 119.381C110.732 119.351 110.748 119.324 110.771 119.305C110.794 119.286 110.823 119.275 110.853 119.275C110.884 119.275 110.913 119.286 110.936 119.305C110.959 119.324 110.975 119.351 110.981 119.381C110.984 119.399 110.984 119.419 110.979 119.437C110.974 119.456 110.965 119.473 110.953 119.487C110.941 119.502 110.926 119.514 110.909 119.522C110.891 119.53 110.873 119.534 110.853 119.534C110.834 119.534 110.816 119.53 110.798 119.522C110.781 119.514 110.766 119.502 110.754 119.487C110.742 119.473 110.733 119.456 110.728 119.437C110.723 119.419 110.723 119.399 110.726 119.381Z" fill="black"/>
<path d="M112.418 117.787H112.815V119.171H113.672V119.492H112.418V117.787Z" fill="black"/>
<path d="M113.761 118.841C113.752 118.696 113.787 118.552 113.861 118.428C113.935 118.303 114.044 118.203 114.175 118.142C114.306 118.08 114.453 118.059 114.596 118.082C114.739 118.105 114.872 118.17 114.978 118.269C115.083 118.368 115.157 118.496 115.189 118.638C115.22 118.779 115.209 118.927 115.156 119.061C115.102 119.196 115.01 119.312 114.89 119.393C114.771 119.475 114.629 119.519 114.484 119.519C114.392 119.525 114.299 119.512 114.211 119.481C114.124 119.449 114.043 119.4 113.976 119.337C113.908 119.273 113.854 119.196 113.817 119.111C113.78 119.026 113.761 118.934 113.761 118.841ZM114.819 118.841C114.814 118.776 114.79 118.714 114.75 118.663C114.71 118.611 114.657 118.572 114.595 118.551C114.534 118.53 114.467 118.527 114.404 118.543C114.341 118.558 114.284 118.592 114.24 118.64C114.196 118.688 114.166 118.747 114.155 118.811C114.145 118.875 114.153 118.941 114.179 119.001C114.204 119.061 114.247 119.111 114.302 119.147C114.356 119.183 114.419 119.202 114.484 119.202C114.531 119.203 114.577 119.194 114.62 119.176C114.663 119.158 114.701 119.13 114.733 119.096C114.764 119.062 114.788 119.022 114.803 118.978C114.818 118.934 114.824 118.887 114.819 118.841Z" fill="black"/>
<path d="M116.819 118.18V119.278C116.831 119.377 116.82 119.477 116.787 119.571C116.754 119.664 116.7 119.749 116.628 119.819C116.557 119.888 116.471 119.939 116.376 119.97C116.281 120 116.181 120.007 116.082 119.992C115.853 120.001 115.626 119.937 115.435 119.809L115.587 119.537C115.717 119.63 115.873 119.682 116.033 119.684C116.301 119.684 116.422 119.564 116.422 119.327V119.269C116.368 119.325 116.303 119.368 116.232 119.397C116.16 119.425 116.083 119.438 116.006 119.434C115.918 119.442 115.83 119.431 115.746 119.402C115.663 119.373 115.586 119.328 115.521 119.268C115.456 119.208 115.404 119.136 115.369 119.055C115.333 118.974 115.315 118.887 115.315 118.798C115.315 118.71 115.333 118.623 115.369 118.542C115.404 118.461 115.456 118.388 115.521 118.328C115.586 118.269 115.663 118.223 115.746 118.194C115.83 118.166 115.918 118.155 116.006 118.162C116.09 118.156 116.175 118.169 116.252 118.202C116.33 118.234 116.399 118.285 116.453 118.35V118.18H116.819ZM116.444 118.801C116.445 118.756 116.437 118.711 116.42 118.67C116.403 118.629 116.378 118.591 116.345 118.56C116.313 118.53 116.274 118.506 116.232 118.491C116.19 118.477 116.145 118.471 116.1 118.475C116.055 118.469 116.008 118.474 115.964 118.487C115.92 118.501 115.88 118.524 115.846 118.555C115.811 118.585 115.784 118.623 115.765 118.665C115.746 118.707 115.736 118.752 115.736 118.798C115.736 118.844 115.746 118.89 115.765 118.932C115.784 118.974 115.811 119.011 115.846 119.042C115.88 119.072 115.92 119.095 115.964 119.109C116.008 119.123 116.055 119.127 116.1 119.122C116.144 119.126 116.189 119.12 116.231 119.106C116.273 119.091 116.311 119.068 116.343 119.038C116.376 119.007 116.402 118.971 116.419 118.93C116.436 118.889 116.445 118.845 116.444 118.801Z" fill="black"/>
<path d="M117.832 117.787C117.832 117.757 117.839 117.728 117.851 117.701C117.864 117.673 117.882 117.649 117.904 117.629C117.926 117.609 117.952 117.594 117.98 117.584C118.009 117.574 118.039 117.571 118.068 117.573C118.098 117.57 118.127 117.573 118.155 117.582C118.183 117.591 118.209 117.605 118.231 117.624C118.254 117.644 118.272 117.667 118.284 117.694C118.297 117.72 118.304 117.749 118.305 117.778C118.305 117.841 118.28 117.901 118.236 117.946C118.191 117.99 118.131 118.015 118.068 118.015C118.006 118.015 117.946 117.99 117.901 117.946C117.857 117.901 117.832 117.841 117.832 117.778V117.787ZM117.877 118.18H118.256V119.519H117.877V118.18Z" fill="black"/>
<path d="M119.948 118.725V119.479H119.568V118.787C119.568 118.573 119.47 118.475 119.3 118.475C119.131 118.475 118.983 118.586 118.983 118.827V119.479H118.604V118.14H118.97V118.296C119.028 118.237 119.097 118.191 119.174 118.16C119.251 118.13 119.334 118.117 119.416 118.122C119.493 118.118 119.57 118.132 119.642 118.162C119.713 118.192 119.776 118.237 119.827 118.295C119.878 118.353 119.916 118.422 119.936 118.496C119.957 118.571 119.961 118.649 119.948 118.725Z" fill="black"/>
</g>
<path d="M132.972 123.023H74.5733V133.021H132.972V123.023Z" fill="#BC63F2"/>
<path d="M96.2294 129.575L95.5153 128.544H95.301H94.453V129.584H93.962V126.161H95.301C96.1937 126.161 96.7248 126.607 96.7248 127.357C96.7361 127.594 96.6688 127.829 96.5332 128.024C96.3976 128.219 96.2014 128.364 95.975 128.437L96.7873 129.584L96.2294 129.575ZM96.2294 127.343C96.2294 126.852 95.9036 126.576 95.2743 126.576H94.4441V128.115H95.2743C95.8902 128.12 96.216 127.834 96.216 127.348L96.2294 127.343Z" fill="white"/>
<path d="M99.7644 128.437H97.6622C97.6952 128.658 97.8098 128.858 97.9833 128.998C98.1568 129.139 98.3766 129.209 98.5995 129.196C98.7396 129.201 98.8791 129.175 99.0085 129.121C99.138 129.067 99.2542 128.986 99.3493 128.883L99.6082 129.187C99.4171 129.381 99.1742 129.515 98.9086 129.574C98.643 129.634 98.3659 129.615 98.1105 129.521C97.8552 129.427 97.6325 129.261 97.469 129.043C97.3056 128.826 97.2084 128.565 97.189 128.294C97.1797 128.119 97.2068 127.943 97.2685 127.779C97.3303 127.615 97.4253 127.465 97.5478 127.339C97.6702 127.214 97.8173 127.115 97.9798 127.048C98.1424 126.982 98.3169 126.95 98.4923 126.955C98.6668 126.95 98.8404 126.982 99.0019 127.048C99.1634 127.115 99.3092 127.214 99.4298 127.34C99.5505 127.466 99.6434 127.617 99.7026 127.781C99.7618 127.945 99.7858 128.12 99.7733 128.294C99.7733 128.334 99.7688 128.392 99.7644 128.437ZM97.6622 128.098H99.3225C99.3012 127.892 99.2045 127.702 99.0512 127.564C98.8979 127.426 98.6988 127.349 98.4923 127.349C98.2859 127.349 98.0868 127.426 97.9335 127.564C97.7801 127.702 97.6835 127.892 97.6622 128.098Z" fill="white"/>
<path d="M102.907 126.986V129.218C102.907 130.133 102.438 130.557 101.568 130.557C101.123 130.576 100.686 130.44 100.331 130.173L100.554 129.811C100.84 130.033 101.193 130.151 101.554 130.146C102.166 130.146 102.447 129.865 102.447 129.276V129.071C102.331 129.203 102.188 129.308 102.026 129.378C101.865 129.447 101.69 129.479 101.514 129.472C101.181 129.472 100.862 129.34 100.627 129.105C100.392 128.87 100.26 128.551 100.26 128.218C100.26 127.885 100.392 127.566 100.627 127.331C100.862 127.096 101.181 126.964 101.514 126.964C101.698 126.958 101.88 126.996 102.047 127.073C102.213 127.151 102.36 127.266 102.474 127.41V127.009L102.907 126.986ZM102.46 128.214C102.47 128.035 102.426 127.858 102.334 127.705C102.242 127.552 102.107 127.43 101.945 127.355C101.783 127.28 101.602 127.255 101.425 127.283C101.249 127.312 101.086 127.393 100.956 127.516C100.826 127.638 100.736 127.797 100.697 127.972C100.659 128.146 100.673 128.328 100.739 128.494C100.805 128.66 100.919 128.802 101.067 128.903C101.215 129.003 101.389 129.057 101.568 129.057C101.682 129.064 101.796 129.047 101.904 129.008C102.011 128.968 102.109 128.907 102.192 128.828C102.274 128.748 102.339 128.653 102.383 128.547C102.427 128.442 102.449 128.328 102.447 128.214H102.46Z" fill="white"/>
<path d="M103.719 126.183C103.72 126.142 103.728 126.101 103.744 126.064C103.761 126.026 103.784 125.992 103.814 125.963C103.843 125.935 103.878 125.912 103.916 125.897C103.954 125.882 103.995 125.874 104.036 125.875C104.079 125.87 104.123 125.874 104.165 125.887C104.206 125.9 104.244 125.921 104.277 125.95C104.31 125.979 104.336 126.014 104.354 126.054C104.372 126.094 104.381 126.137 104.381 126.181C104.381 126.224 104.372 126.267 104.354 126.307C104.336 126.347 104.31 126.382 104.277 126.411C104.244 126.44 104.206 126.462 104.165 126.475C104.123 126.488 104.079 126.492 104.036 126.486C103.995 126.488 103.954 126.481 103.916 126.466C103.878 126.451 103.843 126.429 103.814 126.401C103.784 126.373 103.761 126.339 103.744 126.301C103.728 126.264 103.72 126.224 103.719 126.183ZM103.804 126.986H104.272V129.575H103.804V126.986Z" fill="white"/>
<path d="M104.839 129.303L105.036 128.932C105.301 129.105 105.611 129.198 105.928 129.2C106.375 129.2 106.544 129.066 106.544 128.847C106.544 128.267 104.906 128.772 104.906 127.736C104.906 127.29 105.321 126.959 105.986 126.959C106.316 126.954 106.64 127.036 106.928 127.196L106.727 127.566C106.504 127.426 106.245 127.355 105.982 127.361C105.571 127.361 105.37 127.513 105.37 127.718C105.37 128.33 107.013 127.83 107.013 128.839C107.013 129.285 106.566 129.606 105.893 129.606C105.519 129.612 105.152 129.506 104.839 129.303Z" fill="white"/>
<path d="M109.075 129.437C108.912 129.561 108.712 129.625 108.508 129.62C108.398 129.632 108.286 129.62 108.182 129.584C108.077 129.547 107.982 129.488 107.903 129.41C107.824 129.332 107.764 129.238 107.726 129.133C107.689 129.029 107.675 128.918 107.687 128.807V127.383H107.24V127H107.687V126.433H108.133V127H108.905V127.383H108.16V128.789C108.149 128.847 108.152 128.906 108.168 128.962C108.184 129.018 108.213 129.07 108.252 129.113C108.292 129.156 108.341 129.19 108.395 129.211C108.449 129.232 108.508 129.241 108.566 129.236C108.698 129.237 108.827 129.195 108.932 129.115L109.075 129.437Z" fill="white"/>
<path d="M111.887 128.437H109.798C109.831 128.658 109.946 128.859 110.121 129C110.295 129.141 110.516 129.21 110.74 129.196C110.879 129.201 111.018 129.176 111.147 129.122C111.276 129.068 111.391 128.986 111.485 128.883L111.744 129.187C111.554 129.381 111.311 129.516 111.045 129.576C110.78 129.635 110.503 129.617 110.247 129.522C109.992 129.428 109.77 129.262 109.607 129.044C109.444 128.826 109.348 128.566 109.329 128.294C109.32 128.119 109.347 127.943 109.409 127.779C109.471 127.615 109.566 127.465 109.688 127.339C109.81 127.214 109.958 127.115 110.12 127.048C110.283 126.982 110.457 126.95 110.633 126.955C110.807 126.951 110.98 126.983 111.141 127.05C111.303 127.116 111.448 127.216 111.569 127.342C111.689 127.468 111.782 127.618 111.841 127.782C111.901 127.945 111.925 128.12 111.914 128.294C111.909 128.342 111.9 128.39 111.887 128.437ZM109.798 128.098H111.463C111.437 127.895 111.338 127.709 111.185 127.574C111.032 127.439 110.835 127.364 110.63 127.364C110.426 127.364 110.229 127.439 110.076 127.574C109.922 127.709 109.824 127.895 109.798 128.098Z" fill="white"/>
<path d="M113.944 126.959V127.406H113.837C113.721 127.398 113.605 127.416 113.497 127.459C113.389 127.502 113.292 127.569 113.213 127.655C113.135 127.741 113.077 127.843 113.043 127.955C113.01 128.066 113.002 128.184 113.02 128.298V129.588H112.552V127H112.998V127.446C113.092 127.283 113.232 127.15 113.4 127.063C113.567 126.977 113.757 126.941 113.944 126.959Z" fill="white"/>
<g opacity="0.6">
<path d="M93.547 54.7249L93.7478 54.3054C94.0942 54.5957 94.5323 54.7538 94.9842 54.7517C95.6314 54.7517 95.9081 54.5017 95.9081 54.1759C95.9081 53.2833 93.6407 53.8367 93.6407 52.4486C93.6407 51.8684 94.0871 51.3774 95.0735 51.3774C95.4984 51.3705 95.9165 51.4851 96.2786 51.7077L96.1 52.154C95.7934 51.9578 95.4375 51.8525 95.0735 51.8505C94.4352 51.8505 94.1808 52.1183 94.1808 52.4442C94.1808 53.3368 96.4526 52.7834 96.4526 54.1625C96.4526 54.7338 96.0063 55.2248 95.002 55.2248C94.4731 55.2359 93.9574 55.0587 93.547 54.7249Z" fill="#263238"/>
<path d="M97.0507 51.4354C97.0513 51.3905 97.0608 51.3461 97.0787 51.3049C97.0965 51.2637 97.1224 51.2264 97.1548 51.1953C97.1872 51.1641 97.2254 51.1397 97.2673 51.1235C97.3092 51.1072 97.3539 51.0995 97.3989 51.1007C97.4432 51.0989 97.4874 51.1059 97.529 51.1214C97.5706 51.1369 97.6087 51.1604 97.6411 51.1908C97.6735 51.2211 97.6995 51.2575 97.7177 51.298C97.7359 51.3385 97.7459 51.3822 97.747 51.4265C97.747 51.5188 97.7103 51.6074 97.645 51.6727C97.5797 51.738 97.4912 51.7747 97.3989 51.7747C97.3065 51.7747 97.218 51.738 97.1527 51.6727C97.0874 51.6074 97.0507 51.5188 97.0507 51.4265V51.4354ZM97.14 52.3281H97.6577V55.1668H97.14V52.3281Z" fill="#263238"/>
<path d="M101.349 52.3147V54.7651C101.349 55.7693 100.84 56.2246 99.8804 56.2246C99.3988 56.2399 98.9264 56.0903 98.5414 55.8006L98.7869 55.4033C99.0978 55.6493 99.4841 55.7801 99.8804 55.7738C100.55 55.7738 100.853 55.4614 100.853 54.8186V54.5955C100.727 54.7414 100.57 54.8572 100.393 54.9344C100.216 55.0116 100.024 55.0483 99.8313 55.0418C99.6445 55.0525 99.4575 55.0249 99.2817 54.9607C99.1059 54.8966 98.9451 54.7972 98.809 54.6687C98.673 54.5402 98.5646 54.3853 98.4906 54.2135C98.4165 54.0416 98.3783 53.8565 98.3783 53.6693C98.3783 53.4822 98.4165 53.2971 98.4906 53.1252C98.5646 52.9534 98.673 52.7985 98.809 52.67C98.9451 52.5415 99.1059 52.4421 99.2817 52.378C99.4575 52.3138 99.6445 52.2862 99.8313 52.2969C100.029 52.2866 100.226 52.3215 100.407 52.3988C100.589 52.4762 100.751 52.5939 100.88 52.7432V52.2969L101.349 52.3147ZM100.849 53.6537C100.859 53.4586 100.81 53.265 100.709 53.0979C100.607 52.9309 100.458 52.798 100.281 52.7164C100.103 52.6349 99.9054 52.6084 99.7127 52.6403C99.5199 52.6723 99.3412 52.7613 99.1996 52.8959C99.0579 53.0304 98.9598 53.2043 98.9179 53.3951C98.8761 53.586 98.8924 53.785 98.9647 53.9665C99.037 54.1479 99.162 54.3036 99.3237 54.4133C99.4853 54.5231 99.6761 54.5818 99.8715 54.5821C99.9992 54.5933 100.128 54.5777 100.249 54.5362C100.37 54.4948 100.482 54.4284 100.576 54.3414C100.67 54.2544 100.745 54.1487 100.796 54.031C100.847 53.9134 100.872 53.7864 100.871 53.6582L100.849 53.6537Z" fill="#263238"/>
<path d="M105.027 53.5198V55.1534H104.509V53.56C104.509 53.0021 104.232 52.7298 103.746 52.7298C103.622 52.7217 103.498 52.741 103.383 52.7861C103.268 52.8313 103.164 52.9014 103.078 52.9913C102.993 53.0811 102.929 53.1887 102.89 53.3063C102.851 53.4239 102.838 53.5486 102.853 53.6716V55.1355H102.34V52.2969H102.835V52.7432C102.957 52.5919 103.114 52.4724 103.292 52.3947C103.469 52.317 103.664 52.2834 103.857 52.2969C104.018 52.2861 104.18 52.3107 104.33 52.3691C104.481 52.4276 104.616 52.5183 104.728 52.6349C104.839 52.7516 104.924 52.8913 104.976 53.0442C105.027 53.1971 105.045 53.3594 105.027 53.5198Z" fill="#263238"/>
<path d="M110.066 52.3147V55.1534H109.579V54.7071C109.466 54.8531 109.319 54.9699 109.152 55.0475C108.984 55.1252 108.8 55.1615 108.615 55.1534C108.449 55.1705 108.282 55.1501 108.124 55.0939C107.967 55.0376 107.825 54.9468 107.708 54.8281C107.59 54.7095 107.501 54.5661 107.446 54.4084C107.392 54.2507 107.373 54.0828 107.392 53.9171V52.2835H107.906V53.859C107.906 54.4125 108.187 54.6937 108.673 54.6937C108.797 54.7026 108.921 54.6839 109.037 54.639C109.153 54.5941 109.257 54.5241 109.342 54.434C109.428 54.3439 109.492 54.236 109.531 54.1181C109.569 54.0001 109.581 53.8751 109.566 53.7519V52.2835L110.066 52.3147Z" fill="#263238"/>
<path d="M113.985 53.7341C113.995 53.9257 113.965 54.1173 113.896 54.2967C113.828 54.4761 113.723 54.6392 113.589 54.7758C113.454 54.9123 113.292 55.0192 113.113 55.0896C112.935 55.16 112.744 55.1924 112.552 55.1846C112.363 55.192 112.176 55.1555 112.004 55.0781C111.832 55.0006 111.68 54.8843 111.561 54.7383V56.2023H111.048V52.3281H111.539V52.7744C111.656 52.6191 111.81 52.4945 111.987 52.4113C112.163 52.3282 112.357 52.2889 112.552 52.2969C112.743 52.2886 112.933 52.3202 113.111 52.3895C113.289 52.4589 113.45 52.5645 113.585 52.6997C113.72 52.8349 113.825 52.9967 113.894 53.1748C113.962 53.3529 113.993 53.5434 113.985 53.7341ZM113.467 53.7341C113.458 53.5475 113.395 53.3676 113.285 53.2166C113.175 53.0656 113.023 52.9501 112.848 52.8845C112.673 52.8188 112.483 52.8059 112.301 52.8473C112.119 52.8887 111.953 52.9826 111.824 53.1173C111.694 53.252 111.607 53.4218 111.573 53.6054C111.539 53.7891 111.56 53.9787 111.633 54.1507C111.706 54.3227 111.827 54.4697 111.983 54.5733C112.138 54.677 112.32 54.7328 112.507 54.7338C112.637 54.7366 112.767 54.7122 112.887 54.6624C113.007 54.6126 113.116 54.5384 113.206 54.4444C113.296 54.3505 113.366 54.2388 113.411 54.1166C113.456 53.9943 113.475 53.864 113.467 53.7341Z" fill="#263238"/>
</g>
<path d="M132.972 76.1176H74.5733V86.1155H132.972V76.1176Z" fill="white"/>
<g opacity="0.4">
<path d="M77.7691 79.4875H78.0726V82.0896H79.6749V82.3529H77.7691V79.4875Z" fill="#263238"/>
<path d="M81.7504 81.0184V82.3574H81.4737V82.0226C81.3925 82.142 81.2812 82.2379 81.1511 82.3006C81.0211 82.3633 80.8767 82.3906 80.7328 82.3797C80.2463 82.3797 79.9472 82.1253 79.9472 81.7504C79.9472 81.3755 80.157 81.1434 80.7774 81.1434H81.4603V81.0139C81.4603 80.6435 81.2505 80.4426 80.8488 80.4426C80.588 80.4392 80.3346 80.5294 80.1347 80.697L80.0008 80.4783C80.2556 80.2809 80.5712 80.1783 80.8934 80.1882C81.007 80.1745 81.1221 80.1863 81.2305 80.2227C81.3389 80.2592 81.4377 80.3194 81.5199 80.399C81.602 80.4785 81.6653 80.5754 81.7052 80.6826C81.7451 80.7898 81.7605 80.9045 81.7504 81.0184ZM81.4603 81.7057V81.3531H80.7863C80.3668 81.3531 80.2329 81.5183 80.2329 81.7415C80.2329 81.9646 80.4337 82.1431 80.7774 82.1431C80.9229 82.1521 81.0675 82.1145 81.1902 82.0359C81.313 81.9573 81.4075 81.8416 81.4603 81.7057Z" fill="#263238"/>
<path d="M82.2413 82.1253L82.3708 81.8977C82.5959 82.0548 82.8639 82.1389 83.1385 82.1387C83.5491 82.1387 83.7142 82.0003 83.7142 81.7861C83.7142 81.2237 82.3217 81.6656 82.3217 80.8175C82.3217 80.4649 82.6207 80.2016 83.1697 80.2016C83.4376 80.1981 83.7014 80.2675 83.9329 80.4024L83.8035 80.6345C83.6157 80.5105 83.3947 80.4467 83.1697 80.4515C82.7814 80.4515 82.6118 80.6033 82.6118 80.8086C82.6118 81.3888 84.0044 80.9514 84.0044 81.7771C84.0044 82.1521 83.6785 82.3931 83.1117 82.3931C82.8003 82.3999 82.495 82.3059 82.2413 82.1253Z" fill="#263238"/>
<path d="M85.696 82.2235C85.5692 82.3241 85.4115 82.3777 85.2496 82.3752C85.1647 82.3844 85.0789 82.3744 84.9984 82.346C84.9178 82.3177 84.8447 82.2716 84.7843 82.2112C84.724 82.1508 84.6779 82.0777 84.6495 81.9972C84.6211 81.9167 84.6111 81.8308 84.6203 81.7459V80.4471H84.232V80.2016H84.6203V79.7285H84.9104V80.2016H85.5621V80.4471H84.9104V81.7325C84.9028 81.7839 84.9069 81.8364 84.9225 81.886C84.9381 81.9356 84.9647 81.981 85.0004 82.0188C85.036 82.0566 85.0798 82.0858 85.1284 82.1043C85.177 82.1227 85.2291 82.1299 85.2809 82.1253C85.3981 82.1288 85.5124 82.0891 85.6022 82.0137L85.696 82.2235Z" fill="#263238"/>
<path d="M89.713 79.4875V82.3529H89.463L87.6241 80.0275V82.3529H87.3206V79.4875H87.5706L89.4139 81.8129V79.4875H89.713Z" fill="#263238"/>
<path d="M92.2303 81.0184V82.3574H91.9446V82.0226C91.8641 82.1427 91.7529 82.2391 91.6227 82.3019C91.4924 82.3646 91.3478 82.3915 91.2037 82.3797C90.7172 82.3797 90.4182 82.1253 90.4182 81.7504C90.4182 81.3754 90.6324 81.1434 91.2528 81.1434H91.9446V81.0139C91.9446 80.6435 91.7348 80.4426 91.3331 80.4426C91.0723 80.4391 90.8189 80.5294 90.619 80.697L90.4851 80.4783C90.7394 80.2799 91.0554 80.1772 91.3778 80.1882C91.4909 80.1752 91.6056 80.1875 91.7134 80.2243C91.8212 80.2611 91.9195 80.3214 92.0011 80.4009C92.0828 80.4803 92.1457 80.577 92.1853 80.6838C92.2249 80.7906 92.2403 80.9049 92.2303 81.0184ZM91.9401 81.7057V81.3531H91.2617C90.8466 81.3531 90.7127 81.5183 90.7127 81.7414C90.7127 81.9646 90.9136 82.1431 91.2573 82.1431C91.4035 82.153 91.5491 82.1159 91.6727 82.0373C91.7964 81.9586 91.8916 81.8424 91.9446 81.7057H91.9401Z" fill="#263238"/>
<path d="M96.5731 81.1032V82.3529H96.283V81.1344C96.283 80.6881 96.0509 80.4471 95.6626 80.4471C95.5619 80.4424 95.4615 80.4598 95.3682 80.498C95.275 80.5362 95.1912 80.5943 95.1227 80.6683C95.0543 80.7423 95.0028 80.8303 94.972 80.9262C94.9411 81.0222 94.9316 81.1237 94.944 81.2237V82.3529H94.6539V81.1344C94.6539 80.6881 94.4218 80.4471 94.029 80.4471C93.9284 80.4424 93.8279 80.4598 93.7346 80.498C93.6414 80.5362 93.5576 80.5943 93.4892 80.6683C93.4207 80.7423 93.3693 80.8303 93.3384 80.9262C93.3075 81.0222 93.298 81.1237 93.3104 81.2237V82.3529H93.0203V80.2016H93.2837V80.5944C93.3679 80.4628 93.4852 80.3556 93.6238 80.2835C93.7625 80.2115 93.9176 80.1771 94.0737 80.1837C94.2319 80.1707 94.3903 80.2066 94.5276 80.2864C94.6649 80.3662 94.7744 80.4861 94.8414 80.6301C94.9295 80.4863 95.0548 80.3689 95.204 80.2903C95.3533 80.2118 95.521 80.175 95.6894 80.1837C95.8115 80.1718 95.9348 80.1877 96.0499 80.2302C96.1651 80.2728 96.269 80.3408 96.3541 80.4293C96.4391 80.5178 96.503 80.6244 96.541 80.7411C96.5789 80.8578 96.5899 80.9816 96.5731 81.1032Z" fill="#263238"/>
<path d="M99.2467 81.3665H97.4614C97.4676 81.4715 97.4945 81.5742 97.5406 81.6688C97.5866 81.7633 97.6509 81.8479 97.7297 81.9175C97.8085 81.9872 97.9002 82.0406 97.9997 82.0747C98.0992 82.1089 98.2044 82.123 98.3094 82.1164C98.4333 82.1203 98.5566 82.0973 98.6707 82.0487C98.7848 82.0001 98.8869 81.9273 98.97 81.8352L99.1306 82.0226C98.976 82.1841 98.7771 82.2965 98.559 82.3457C98.3408 82.3949 98.113 82.3787 97.904 82.2992C97.6949 82.2197 97.514 82.0804 97.3836 81.8986C97.2533 81.7169 97.1795 81.5007 97.1712 81.2772C97.1639 81.1351 97.1858 80.993 97.2356 80.8596C97.2854 80.7263 97.3621 80.6046 97.4608 80.5021C97.5596 80.3996 97.6783 80.3184 97.8097 80.2637C97.9411 80.2089 98.0823 80.1817 98.2246 80.1837C98.3667 80.181 98.5079 80.2077 98.6391 80.2624C98.7704 80.317 98.8888 80.3983 98.987 80.5011C99.0852 80.6039 99.161 80.7259 99.2095 80.8595C99.258 80.9932 99.2783 81.1354 99.269 81.2772C99.2512 81.304 99.2467 81.3353 99.2467 81.3665ZM97.4614 81.1523H98.9878C98.9878 80.9499 98.9074 80.7557 98.7643 80.6126C98.6211 80.4695 98.427 80.389 98.2246 80.389C98.0222 80.389 97.828 80.4695 97.6849 80.6126C97.5418 80.7557 97.4614 80.9499 97.4614 81.1523Z" fill="#263238"/>
</g>
<path d="M132.972 62.4599H74.5733V72.4577H132.972V62.4599Z" fill="white"/>
<g opacity="0.4">
<path d="M78.0726 66.093V67.2178H79.5544V67.4811H78.0726V68.6951H77.7691V65.8297H79.733V66.093H78.0726Z" fill="#263238"/>
<path d="M80.1927 65.8609C80.1918 65.8182 80.2037 65.7761 80.2269 65.7402C80.2501 65.7043 80.2835 65.6762 80.3228 65.6594C80.3622 65.6427 80.4056 65.638 80.4476 65.6462C80.4896 65.6543 80.5281 65.6748 80.5584 65.705C80.5886 65.7352 80.6091 65.7738 80.6172 65.8158C80.6253 65.8578 80.6207 65.9012 80.6039 65.9405C80.5872 65.9798 80.559 66.0133 80.5231 66.0365C80.4872 66.0596 80.4452 66.0716 80.4024 66.0707C80.3468 66.0707 80.2935 66.0486 80.2541 66.0092C80.2148 65.9699 80.1927 65.9166 80.1927 65.8609ZM80.2552 66.5438H80.5453V68.6951H80.2552V66.5438Z" fill="#263238"/>
<path d="M82.4422 66.526V66.8071H82.3708C82.2682 66.8022 82.1659 66.8199 82.071 66.8591C81.9761 66.8983 81.8911 66.958 81.822 67.0339C81.7529 67.1099 81.7014 67.2001 81.6713 67.2983C81.6412 67.3964 81.6331 67.5 81.6477 67.6016V68.6996H81.3576V66.5483H81.6343V66.95C81.7115 66.8069 81.8296 66.6902 81.9735 66.6147C82.1175 66.5391 82.2806 66.5082 82.4422 66.526Z" fill="#263238"/>
<path d="M82.6832 68.4497L82.8127 68.2176C83.0358 68.3793 83.3048 68.4653 83.5804 68.463C83.991 68.463 84.1561 68.3202 84.1561 68.1104C84.1561 67.5481 82.7636 67.9899 82.7636 67.1374C82.7636 66.7893 83.0626 66.526 83.6116 66.526C83.8798 66.5201 84.1442 66.5897 84.3748 66.7268L84.2454 66.9589C84.0576 66.8349 83.8366 66.7711 83.6116 66.7759C83.2233 66.7759 83.0537 66.9277 83.0537 67.133C83.0537 67.7132 84.4462 67.2758 84.4462 68.1015C84.4462 68.472 84.1204 68.713 83.5536 68.713C83.2427 68.7211 82.9375 68.6287 82.6832 68.4497Z" fill="#263238"/>
<path d="M86.1423 68.5657C86.0141 68.6631 85.857 68.715 85.696 68.713C85.6113 68.7229 85.5255 68.7136 85.445 68.6857C85.3644 68.6579 85.2912 68.6123 85.2307 68.5522C85.1702 68.4922 85.1241 68.4193 85.0957 68.3389C85.0673 68.2586 85.0574 68.1728 85.0667 68.0881V66.7893H84.6783V66.5438H85.0667V66.0573H85.3568V66.5304H86.0084V66.7759H85.3568V68.0569C85.3493 68.1085 85.3535 68.1611 85.369 68.2109C85.3846 68.2606 85.4111 68.3062 85.4467 68.3444C85.4822 68.3825 85.5259 68.4122 85.5745 68.4312C85.623 68.4501 85.6752 68.458 85.7272 68.4541C85.8441 68.4556 85.9578 68.4161 86.0486 68.3425L86.1423 68.5657Z" fill="#263238"/>
<path d="M90.1593 65.8297V68.6951H89.9094L88.0705 66.3697V68.6951H87.767V65.8297H88.0169L89.8603 68.1551V65.8297H90.1593Z" fill="#263238"/>
<path d="M92.6722 67.3606V68.6996H92.391V68.3648C92.3109 68.4841 92.2004 68.5797 92.0709 68.6417C91.9413 68.7037 91.7976 68.7299 91.6545 68.7175C91.1635 68.7175 90.8645 68.4675 90.8645 68.0926C90.8645 67.7177 91.0787 67.4856 91.6991 67.4856H92.391V67.3517C92.391 66.9857 92.1812 66.7848 91.7795 66.7848C91.5187 66.7814 91.2652 66.8716 91.0654 67.0392L90.9314 66.8205C91.1859 66.6224 91.5018 66.5198 91.8241 66.5304C91.9371 66.5173 92.0516 66.5295 92.1593 66.5663C92.2669 66.6032 92.365 66.6636 92.4462 66.7431C92.5275 66.8227 92.59 66.9195 92.6291 67.0263C92.6682 67.1331 92.6829 67.2473 92.6722 67.3606ZM92.382 68.048V67.6953H91.7036C91.2885 67.6953 91.1546 67.8605 91.1546 68.0792C91.1546 68.2979 91.3555 68.4854 91.6991 68.4854C91.846 68.4955 91.9923 68.4586 92.1167 68.3799C92.2411 68.3013 92.3372 68.185 92.391 68.048H92.382Z" fill="#263238"/>
<path d="M97.015 67.4454V68.6951H96.7249V67.4766C96.7249 67.0303 96.4928 66.7893 96.1045 66.7893C96.0038 66.7846 95.9033 66.802 95.8101 66.8402C95.7168 66.8784 95.633 66.9365 95.5646 67.0105C95.4961 67.0845 95.4447 67.1725 95.4138 67.2684C95.3829 67.3644 95.3734 67.4659 95.3859 67.5659V68.6951H95.0957V67.4766C95.0957 67.0303 94.8636 66.7893 94.4709 66.7893C94.3702 66.7846 94.2697 66.802 94.1765 66.8402C94.0832 66.8784 93.9994 66.9365 93.931 67.0105C93.8625 67.0845 93.8111 67.1725 93.7802 67.2684C93.7494 67.3644 93.7398 67.4659 93.7523 67.5659V68.6951H93.4622V66.5438H93.73V66.95C93.8142 66.8184 93.9315 66.7112 94.0701 66.6391C94.2088 66.5671 94.3639 66.5327 94.52 66.5393C94.6782 66.5263 94.8366 66.5622 94.9739 66.642C95.1112 66.7218 95.2207 66.8417 95.2877 66.9857C95.3751 66.8412 95.5002 66.7233 95.6496 66.6446C95.7991 66.566 95.9671 66.5296 96.1357 66.5393C96.2562 66.5285 96.3776 66.5447 96.4911 66.5868C96.6045 66.6289 96.7071 66.6958 96.7914 66.7827C96.8757 66.8695 96.9395 66.9741 96.9782 67.0887C97.0168 67.2034 97.0294 67.3253 97.015 67.4454Z" fill="#263238"/>
<path d="M99.6885 67.7087H97.9032C97.9095 67.8137 97.9364 67.9164 97.9824 68.011C98.0285 68.1056 98.0927 68.1901 98.1715 68.2598C98.2503 68.3294 98.3421 68.3828 98.4415 68.417C98.541 68.4511 98.6463 68.4652 98.7512 68.4586C98.8756 68.4626 98.9993 68.4391 99.1135 68.3897C99.2277 68.3403 99.3296 68.2663 99.4118 68.1729L99.5725 68.3648C99.4178 68.5264 99.219 68.6387 99.0008 68.6879C98.7826 68.7371 98.5548 68.7209 98.3458 68.6414C98.1368 68.5619 97.9558 68.4226 97.8255 68.2408C97.6952 68.0591 97.6213 67.843 97.6131 67.6195C97.6057 67.4773 97.6276 67.3352 97.6775 67.2019C97.7273 67.0685 97.8039 66.9468 97.9027 66.8443C98.0014 66.7418 98.1201 66.6607 98.2515 66.6059C98.3829 66.5511 98.5241 66.5239 98.6664 66.526C98.8086 66.5232 98.9497 66.5499 99.081 66.6046C99.2122 66.6592 99.3307 66.7405 99.4288 66.8433C99.527 66.9461 99.6028 67.0682 99.6513 67.2018C99.6999 67.3354 99.7201 67.4776 99.7108 67.6195C99.693 67.6418 99.6885 67.673 99.6885 67.7087ZM97.9032 67.49H99.4297C99.4297 67.2876 99.3492 67.0935 99.2061 66.9503C99.063 66.8072 98.8688 66.7268 98.6664 66.7268C98.464 66.7268 98.2699 66.8072 98.1267 66.9503C97.9836 67.0935 97.9032 67.2876 97.9032 67.49Z" fill="#263238"/>
</g>
<path d="M52.6003 147.415H52.1763C52.1763 146.786 52.6985 132.039 55.265 129.562C57.9028 126.995 61.0048 129.526 61.0316 129.562L60.7638 129.883C60.6477 129.789 57.9206 127.575 55.5551 129.883C53.1136 132.208 52.6048 147.263 52.6003 147.415Z" fill="#BC63F2"/>
<path d="M52.3861 150.374L51.9665 150.334C51.9665 150.155 53.6269 132.427 47.2042 125.054L47.5211 124.777C54.0643 132.289 52.4039 150.196 52.3861 150.374Z" fill="#BC63F2"/>
<path d="M52.5915 148.482C52.5379 147.643 51.3016 127.95 56.238 123.398L56.5237 123.71C51.7345 128.111 52.9976 148.258 53.011 148.45L52.5915 148.482Z" fill="#BC63F2"/>
<path d="M51.9665 148.468C51.9665 148.334 51.8148 135.078 48.3021 133.083C48.0035 132.886 47.6619 132.764 47.3062 132.727C46.9504 132.689 46.5909 132.738 46.2579 132.869C44.2003 133.721 43.1068 137.649 43.0934 137.689L42.6873 137.578C42.7319 137.408 43.8477 133.413 46.0972 132.481C46.4891 132.323 46.9132 132.262 47.3335 132.304C47.7538 132.345 48.158 132.487 48.5119 132.717C52.2299 134.846 52.3861 147.892 52.3905 148.464L51.9665 148.468Z" fill="#BC63F2"/>
<path d="M53.4126 148.477C53.3859 148.031 52.8458 138.015 55.6889 134.297C56.4477 133.311 57.2868 132.842 58.1973 132.909C60.2192 133.047 61.768 135.788 61.8528 135.904L61.4868 136.114C61.4868 136.087 59.9603 133.436 58.1661 133.329C57.4118 133.271 56.6887 133.686 56.0237 134.556C53.2743 138.127 53.8277 148.352 53.8322 148.455L53.4126 148.477Z" fill="#BC63F2"/>
<path d="M52.8458 149.865L52.4263 149.834C52.4263 149.593 54.2116 125.678 51.2658 121.688L51.605 121.438C54.649 125.553 52.9217 148.874 52.8458 149.865Z" fill="#BC63F2"/>
<path d="M45.2805 134.86C45.2805 134.86 47.1015 135.533 46.5615 137.118C46.0214 138.702 40.2548 141.314 40.2548 141.314C40.2548 141.314 37.8401 139.104 40.0584 135.511C42.2767 131.918 45.2314 133.726 45.2805 134.86Z" fill="#BC63F2"/>
<path opacity="0.2" d="M45.2805 134.86C45.2805 134.86 47.1015 135.533 46.5615 137.118C46.0214 138.702 40.2548 141.314 40.2548 141.314C40.2548 141.314 37.8401 139.104 40.0584 135.511C42.2767 131.918 45.2314 133.726 45.2805 134.86Z" fill="black"/>
<path d="M53.2029 131.842C53.2029 131.842 51.2614 131.762 51.1498 133.431C51.0382 135.101 55.3453 139.733 55.3453 139.733C55.3453 139.733 58.425 138.618 57.7644 134.444C57.1039 130.271 53.6849 130.811 53.2029 131.842Z" fill="#BC63F2"/>
<path opacity="0.2" d="M53.2029 131.842C53.2029 131.842 51.2614 131.762 51.1498 133.431C51.0382 135.101 55.3453 139.733 55.3453 139.733C55.3453 139.733 58.425 138.618 57.7644 134.444C57.1039 130.271 53.6849 130.811 53.2029 131.842Z" fill="black"/>
<path d="M54.8454 123.835C54.8454 123.835 53.551 123.697 53.6537 122.911C53.7563 122.126 58.6839 120.095 61.5895 123.358C61.5895 123.358 59.7283 126.553 57.0414 126.598C54.3544 126.643 54.8454 123.835 54.8454 123.835Z" fill="#BC63F2"/>
<path opacity="0.2" d="M54.8454 123.835C54.8454 123.835 53.551 123.697 53.6537 122.911C53.7563 122.126 58.6839 120.095 61.5895 123.358C61.5895 123.358 59.7283 126.553 57.0414 126.598C54.3544 126.643 54.8454 123.835 54.8454 123.835Z" fill="black"/>
<path d="M52.4352 121.92C52.4352 121.92 53.6046 122.487 53.9349 121.764C54.2651 121.041 51.1542 116.716 46.9542 117.961C46.9542 117.961 46.8426 121.657 49.1011 123.117C51.3595 124.576 52.4352 121.92 52.4352 121.92Z" fill="#BC63F2"/>
<path opacity="0.2" d="M52.4352 121.92C52.4352 121.92 53.6046 122.487 53.9349 121.764C54.2651 121.041 51.1542 116.716 46.9542 117.961C46.9542 117.961 46.8426 121.657 49.1011 123.117C51.3595 124.576 52.4352 121.92 52.4352 121.92Z" fill="black"/>
<path d="M58.5589 134.226C58.5589 134.226 57.6663 133.503 58.6303 133.15C59.5944 132.797 64.3211 132.9 64.3702 137.582C64.3702 137.582 58.8624 138.497 58.184 136.712C57.5056 134.926 58.5589 134.226 58.5589 134.226Z" fill="#BC63F2"/>
<path opacity="0.2" d="M58.5589 134.226C58.5589 134.226 57.6663 133.503 58.6303 133.15C59.5944 132.797 64.3211 132.9 64.3702 137.582C64.3702 137.582 58.8624 138.497 58.184 136.712C57.5056 134.926 58.5589 134.226 58.5589 134.226Z" fill="black"/>
<path d="M47.3113 123.719C47.3113 123.719 48.204 122.996 47.2399 122.648C46.2758 122.3 41.5492 122.393 41.5001 127.075C41.5001 127.075 47.0078 127.995 47.6862 126.21C48.3647 124.424 47.3113 123.719 47.3113 123.719Z" fill="#BC63F2"/>
<path opacity="0.2" d="M47.3113 123.719C47.3113 123.719 48.204 122.996 47.2399 122.648C46.2758 122.3 41.5492 122.393 41.5001 127.075C41.5001 127.075 47.0078 127.995 47.6862 126.21C48.3647 124.424 47.3113 123.719 47.3113 123.719Z" fill="black"/>
<path d="M50.2393 127.491C50.2393 127.491 50.3196 126.598 49.61 126.959C48.9003 127.321 46.441 129.963 48.994 132.485C48.994 132.485 52.4353 129.936 51.8149 128.611C51.1945 127.285 50.2393 127.491 50.2393 127.491Z" fill="#BC63F2"/>
<path opacity="0.2" d="M50.2393 127.491C50.2393 127.491 50.3196 126.598 49.61 126.959C48.9003 127.321 46.441 129.963 48.994 132.485C48.994 132.485 52.4353 129.936 51.8149 128.611C51.1945 127.285 50.2393 127.491 50.2393 127.491Z" fill="black"/>
<path d="M59.3623 128.74C59.3623 128.74 58.8267 128.04 59.6122 127.955C60.3978 127.87 63.897 128.803 63.0802 132.302C63.0802 132.302 58.8133 131.981 58.6169 130.517C58.4205 129.053 59.3623 128.74 59.3623 128.74Z" fill="#BC63F2"/>
<path opacity="0.2" d="M59.3623 128.74C59.3623 128.74 58.8267 128.04 59.6122 127.955C60.3978 127.87 63.897 128.803 63.0802 132.302C63.0802 132.302 58.8133 131.981 58.6169 130.517C58.4205 129.053 59.3623 128.74 59.3623 128.74Z" fill="black"/>
<path d="M45.5974 161.448H59.3936L61.228 148.031H43.763L45.5974 161.448Z" fill="#263238"/>
<path opacity="0.2" d="M45.5974 161.448H59.3936L61.228 148.031H43.763L45.5974 161.448Z" fill="white"/>
<path d="M62.9597 146.942V148.218C62.9597 148.628 62.797 149.021 62.5074 149.31C62.2178 149.6 61.825 149.763 61.4154 149.763H43.4059C42.9963 149.763 42.6035 149.6 42.3139 149.31C42.0243 149.021 41.8616 148.628 41.8616 148.218V146.942H62.9597Z" fill="#263238"/>
<path d="M177.917 19.777H165.094C164.048 19.777 163.044 20.1927 162.304 20.9327C161.564 21.6726 161.149 22.6762 161.149 23.7226V34.8809C161.148 35.3994 161.25 35.913 161.448 36.3922C161.646 36.8714 161.936 37.3069 162.303 37.6738C162.669 38.0406 163.104 38.3317 163.583 38.5302C164.062 38.7288 164.576 38.831 165.094 38.831H168.839L167.946 42.3525L171.517 38.831H177.94C178.987 38.831 179.992 38.4148 180.733 37.674C181.473 36.9333 181.89 35.9285 181.89 34.8809V23.7226C181.89 23.2022 181.787 22.6869 181.587 22.2065C181.387 21.726 181.094 21.2899 180.725 20.9231C180.355 20.5564 179.917 20.2663 179.435 20.0696C178.954 19.8729 178.438 19.7735 177.917 19.777Z" fill="#BC63F2"/>
<path opacity="0.7" d="M177.917 19.777H165.094C164.048 19.777 163.044 20.1927 162.304 20.9327C161.564 21.6726 161.149 22.6762 161.149 23.7226V34.8809C161.148 35.3994 161.25 35.913 161.448 36.3922C161.646 36.8714 161.936 37.3069 162.303 37.6738C162.669 38.0406 163.104 38.3317 163.583 38.5302C164.062 38.7288 164.576 38.831 165.094 38.831H168.839L167.946 42.3525L171.517 38.831H177.94C178.987 38.831 179.992 38.4148 180.733 37.674C181.473 36.9333 181.89 35.9285 181.89 34.8809V23.7226C181.89 23.2022 181.787 22.6869 181.587 22.2065C181.387 21.726 181.094 21.2899 180.725 20.9231C180.355 20.5564 179.917 20.2663 179.435 20.0696C178.954 19.8729 178.438 19.7735 177.917 19.777Z" fill="white"/>
<path d="M171.508 34.2337C174.256 34.2337 176.485 32.0056 176.485 29.2571C176.485 26.5086 174.256 24.2805 171.508 24.2805C168.759 24.2805 166.531 26.5086 166.531 29.2571C166.531 32.0056 168.759 34.2337 171.508 34.2337Z" fill="white"/>
<path d="M171.508 22.8924C170.249 22.8924 169.019 23.2657 167.972 23.9651C166.925 24.6644 166.109 25.6585 165.628 26.8215C165.146 27.9845 165.02 29.2642 165.266 30.4988C165.511 31.7335 166.117 32.8675 167.007 33.7577C167.898 34.6478 169.032 35.254 170.266 35.4995C171.501 35.7451 172.781 35.6191 173.944 35.1374C175.107 34.6556 176.101 33.8398 176.8 32.7932C177.499 31.7465 177.873 30.516 177.873 29.2571C177.873 28.4211 177.709 27.5932 177.389 26.8208C177.07 26.0483 176.601 25.3464 176.01 24.7553C175.419 24.1642 174.717 23.6954 173.944 23.3757C173.172 23.0561 172.344 22.8918 171.508 22.8924ZM175.119 27.3558L171.285 31.8726C171.23 31.9379 171.162 31.9902 171.085 32.0257C171.008 32.0613 170.923 32.0791 170.838 32.078C170.754 32.0785 170.67 32.0603 170.593 32.0249C170.515 31.9894 170.447 31.9374 170.392 31.8726L167.897 28.9313C167.844 28.8732 167.804 28.805 167.778 28.7308C167.752 28.6567 167.742 28.5781 167.747 28.4998C167.752 28.4215 167.773 28.345 167.808 28.275C167.844 28.2049 167.893 28.1427 167.953 28.092C168.013 28.0414 168.082 28.0033 168.157 27.9801C168.232 27.9569 168.311 27.949 168.389 27.9569C168.468 27.9649 168.543 27.9884 168.612 28.0262C168.681 28.0641 168.741 28.1153 168.79 28.177L170.838 30.5917L174.226 26.6015C174.328 26.4892 174.469 26.4208 174.621 26.4107C174.772 26.4007 174.921 26.4497 175.037 26.5475C175.152 26.6453 175.226 26.7843 175.241 26.9351C175.256 27.0858 175.213 27.2367 175.119 27.3558Z" fill="#BC63F2"/>
<path d="M175.695 88.6239C175.695 88.6239 167.924 87.642 156.15 90.8556C156.15 90.8556 154.257 69.8154 154.48 66.9232C154.703 64.0309 172.659 64.879 172.659 64.879C172.659 64.879 173.106 73.3013 174.275 78.3805C175.445 83.4598 176.302 87.6464 175.695 88.6239Z" fill="#BC63F2"/>
<path opacity="0.2" d="M175.695 88.6239C175.695 88.6239 167.924 87.642 156.15 90.8556C156.15 90.8556 154.257 69.8154 154.48 66.9232C154.703 64.0309 172.659 64.879 172.659 64.879C172.659 64.879 173.106 73.3013 174.275 78.3805C175.445 83.4598 176.302 87.6464 175.695 88.6239Z" fill="black"/>
<path d="M150.472 158.279L153.641 159.176L154.396 154.244L154.802 151.606L151.633 150.709L151.093 154.244L150.472 158.279Z" fill="#E4897B"/>
<path d="M168.692 158.537L171.959 158.97L171.99 154.244L172.012 151.307L168.741 150.878L168.718 154.244L168.692 158.537Z" fill="#E4897B"/>
<path opacity="0.2" d="M168.741 150.878L168.718 154.244H171.99L172.012 151.307L168.741 150.878Z" fill="black"/>
<path opacity="0.2" d="M151.093 154.244H154.396L154.802 151.606L151.633 150.709L151.093 154.244Z" fill="black"/>
<path d="M136.404 68.6505L133.257 67.7221L133.833 71.3151C133.833 71.3151 136.69 71.9712 136.957 70.4849L136.404 68.6505Z" fill="#E4897B"/>
<path d="M130.115 68.5568L131.659 71.4758L133.833 71.3151L133.257 67.7221L130.115 68.5568Z" fill="#E4897B"/>
<path d="M140.747 69.5699L135.578 68.4139L135.109 70.9223L139.8 72.0649L140.747 69.5699Z" fill="#E4897B"/>
<path d="M156.382 67.3026L156.078 67.6641C155.427 68.4273 153.847 70.2707 152.2 71.8596C150.861 73.154 149.522 74.2832 148.629 74.5108C146.098 75.1625 136.899 72.4532 136.899 72.4532L137.85 68.7219C137.85 68.7219 146.42 69.8601 147.085 69.8601C147.589 69.8601 152.802 62.3081 154.065 61.6877L156.382 67.3026Z" fill="#BC63F2"/>
<path opacity="0.2" d="M156.078 67.6641C155.427 68.4273 153.847 70.2707 152.2 71.8596C152.53 69.2441 153.489 66.8428 154.753 65.3253C154.87 65.1788 155.005 65.047 155.154 64.9325L156.078 67.6641Z" fill="black"/>
<path d="M150.512 157.783L154.11 157.689C154.175 157.687 154.238 157.708 154.29 157.746C154.342 157.785 154.379 157.841 154.396 157.904L155.154 160.8C155.172 160.87 155.175 160.942 155.161 161.013C155.147 161.083 155.118 161.149 155.075 161.207C155.032 161.264 154.977 161.311 154.913 161.344C154.85 161.378 154.78 161.396 154.708 161.398C153.409 161.398 151.53 161.398 149.901 161.43C147.991 161.483 146.777 161.39 144.545 161.43C143.206 161.465 142.76 160.118 143.331 159.979C145.888 159.345 147.562 159.47 149.74 158.042C149.97 157.889 150.237 157.799 150.512 157.783Z" fill="#263238"/>
<path d="M150.2 158.247C149.673 158.363 148.736 158.52 148.361 158.212C148.306 158.166 148.263 158.109 148.235 158.044C148.207 157.978 148.195 157.908 148.2 157.837C148.2 157.794 148.211 157.752 148.232 157.716C148.254 157.679 148.284 157.648 148.321 157.627C148.718 157.39 150.062 158.029 150.218 158.1C150.232 158.107 150.243 158.118 150.251 158.132C150.259 158.145 150.263 158.16 150.262 158.176C150.262 158.193 150.255 158.21 150.244 158.223C150.232 158.236 150.217 158.244 150.2 158.247ZM148.415 157.752H148.388C148.373 157.761 148.361 157.773 148.352 157.788C148.343 157.803 148.339 157.82 148.339 157.837C148.335 157.883 148.342 157.929 148.36 157.972C148.378 158.015 148.406 158.052 148.441 158.082C148.651 158.256 149.196 158.274 149.919 158.131C149.397 157.913 148.669 157.658 148.424 157.752H148.415Z" fill="#BC63F2"/>
<path d="M150.2 158.247H150.146C149.74 158.078 148.928 157.39 148.973 157.02C148.973 156.931 149.044 156.819 149.258 156.792C149.337 156.782 149.417 156.787 149.493 156.808C149.57 156.829 149.642 156.864 149.705 156.913C150.151 157.248 150.254 158.127 150.262 158.163C150.264 158.176 150.262 158.19 150.256 158.202C150.251 158.215 150.242 158.226 150.231 158.234L150.2 158.247ZM149.2 156.966C149.133 156.989 149.129 157.024 149.129 157.038C149.102 157.261 149.655 157.806 150.071 158.038C150.023 157.663 149.857 157.313 149.597 157.038C149.553 157.001 149.502 156.974 149.446 156.958C149.391 156.943 149.333 156.94 149.276 156.949C149.25 156.951 149.224 156.957 149.2 156.966Z" fill="#BC63F2"/>
<path d="M168.821 157.783L172.418 157.689C172.484 157.687 172.548 157.707 172.601 157.746C172.654 157.785 172.691 157.84 172.709 157.904L173.463 160.8C173.482 160.87 173.485 160.943 173.471 161.013C173.458 161.084 173.429 161.151 173.386 161.208C173.343 161.266 173.287 161.313 173.223 161.346C173.159 161.379 173.088 161.397 173.017 161.398C171.718 161.398 169.839 161.398 168.205 161.43C166.299 161.483 165.081 161.39 162.849 161.43C161.51 161.465 161.064 160.118 161.635 159.979C164.193 159.345 165.862 159.47 168.04 158.042C168.272 157.887 168.542 157.798 168.821 157.783Z" fill="#263238"/>
<path d="M168.513 158.247C167.986 158.363 167.045 158.52 166.674 158.212C166.619 158.166 166.576 158.109 166.548 158.044C166.521 157.978 166.509 157.908 166.513 157.837C166.513 157.794 166.524 157.752 166.545 157.716C166.567 157.679 166.597 157.648 166.634 157.627C167.027 157.39 168.375 158.029 168.526 158.1C168.541 158.106 168.554 158.117 168.562 158.13C168.57 158.144 168.573 158.16 168.571 158.176C168.57 158.192 168.564 158.208 168.553 158.221C168.543 158.234 168.529 158.243 168.513 158.247ZM166.728 157.752H166.701C166.686 157.76 166.674 157.773 166.666 157.788C166.658 157.803 166.655 157.82 166.656 157.837C166.652 157.883 166.659 157.93 166.677 157.972C166.695 158.015 166.723 158.053 166.759 158.082C166.969 158.256 167.509 158.274 168.236 158.131C167.705 157.913 166.978 157.658 166.732 157.752H166.728Z" fill="#BC63F2"/>
<path d="M168.513 158.247H168.455C168.053 158.078 167.237 157.39 167.286 157.02C167.286 156.931 167.353 156.819 167.567 156.792C167.645 156.782 167.726 156.787 167.802 156.807C167.879 156.828 167.951 156.864 168.013 156.913C168.325 157.261 168.521 157.698 168.571 158.163C168.573 158.176 168.572 158.19 168.566 158.203C168.561 158.216 168.551 158.226 168.54 158.234L168.513 158.247ZM167.509 156.966C167.446 156.989 167.442 157.024 167.442 157.038C167.411 157.261 167.969 157.806 168.384 158.038C168.333 157.664 168.167 157.314 167.911 157.038C167.866 157.001 167.815 156.974 167.759 156.959C167.704 156.943 167.646 156.94 167.589 156.949L167.509 156.966Z" fill="#BC63F2"/>
<path d="M175.431 86.7047C177.163 94.2075 174.19 153.235 174.19 153.235H168.451L165.996 104.045L156.957 153.235L150.82 152.789C154.837 114.681 158.377 91.9312 158.377 91.9312V89.0568L175.431 86.7047Z" fill="#263238"/>
<path opacity="0.4" d="M150.82 152.789L156.957 153.235L164.072 114.511L165.996 104.045L168.451 153.235H174.19C174.19 153.235 177.163 94.2075 175.431 86.7047L158.368 89.0568V91.9312C158.368 91.9312 154.833 114.681 150.82 152.789Z" fill="white"/>
<path d="M172.338 58.916C172.162 62.5033 172.253 66.0987 172.61 69.6726C172.851 72.1721 173.182 74.5331 173.534 76.6622C174.36 81.6566 175.297 85.4014 175.431 86.7091L158.368 89.0613C152.146 71.6543 154.489 61.5404 154.489 61.5404C155.765 61.0136 157.072 60.5664 158.404 60.2014C158.685 60.1255 158.97 60.0541 159.265 59.9872C161.662 59.5156 164.083 59.1818 166.518 58.9874C166.964 58.9472 167.451 58.916 167.906 58.8936C170.236 58.7776 172.338 58.916 172.338 58.916Z" fill="#263238"/>
<path d="M163.206 51.0828C163.331 53.4707 163.586 57.9519 165.572 59.09C165.572 59.09 164.335 61.4422 161.662 61.6832C159.64 61.8618 159.774 59.8666 159.774 59.8666C160.943 58.9963 160.667 57.5189 159.774 55.8496L163.206 51.0828Z" fill="#E4897B"/>
<path opacity="0.2" d="M161.805 53.0288L159.787 55.8497C160 56.2354 160.179 56.6386 160.323 57.0547C161.26 56.6798 162.336 55.2694 162.18 54.2473C162.131 53.8215 162.004 53.4084 161.805 53.0288Z" fill="black"/>
<path d="M154.503 46.2758C154.114 47.5166 154.329 50.0607 156.056 49.235C157.783 48.4093 155.172 44.1468 154.503 46.2758Z" fill="#263238"/>
<path d="M163.429 47.954C163.621 51.1364 163.876 52.9887 162.488 54.7918C160.376 57.5011 156.288 56.4924 155.145 53.4216C154.119 50.6543 153.98 45.9143 156.931 44.3075C157.585 43.9517 158.318 43.7676 159.063 43.7725C159.807 43.7773 160.538 43.971 161.187 44.3353C161.837 44.6996 162.383 45.2227 162.775 45.8556C163.167 46.4884 163.392 47.2105 163.429 47.954Z" fill="#E4897B"/>
<path d="M161.198 46.2222V42.6516C161.198 42.6516 164.983 42.3704 164.813 44.3075C166.911 45.3474 165.92 48.6101 163.103 50.208C161.559 48.9717 161.738 45.9991 161.738 45.9991C161.573 46.0839 161.385 46.1553 161.198 46.2222Z" fill="#263238"/>
<path d="M164.969 50.4356C164.896 50.8249 164.746 51.1957 164.528 51.5261C164.309 51.8565 164.027 52.1398 163.697 52.3593C162.804 52.944 162.032 52.2254 162.001 51.2212C161.974 50.3285 162.398 48.9181 163.425 48.7396C163.649 48.7046 163.879 48.7258 164.093 48.8013C164.308 48.8768 164.5 49.0043 164.653 49.1723C164.806 49.3404 164.915 49.5437 164.97 49.7642C165.025 49.9846 165.025 50.2153 164.969 50.4356Z" fill="#E4897B"/>
<path d="M158.729 49.3734C158.761 49.6322 158.649 49.8554 158.479 49.8733C158.31 49.8911 158.149 49.6992 158.118 49.4269C158.087 49.1547 158.198 48.9449 158.363 48.927C158.529 48.9092 158.698 49.0966 158.729 49.3734Z" fill="#263238"/>
<path d="M155.81 49.6992C155.842 49.9581 155.73 50.1812 155.56 50.1991C155.391 50.2169 155.23 50.025 155.199 49.7527C155.168 49.4805 155.279 49.2707 155.449 49.2529C155.618 49.235 155.77 49.4403 155.81 49.6992Z" fill="#263238"/>
<path d="M156.752 49.7215C156.527 50.5196 156.192 51.2826 155.757 51.9889C155.949 52.0878 156.161 52.1449 156.377 52.1565C156.593 52.168 156.809 52.1337 157.011 52.0558L156.752 49.7215Z" fill="#DE5753"/>
<path d="M158.515 52.886C158.405 52.9141 158.293 52.935 158.18 52.9485C158.16 52.9485 158.141 52.9405 158.127 52.9263C158.113 52.912 158.105 52.8927 158.105 52.8726C158.105 52.8525 158.113 52.8332 158.127 52.819C158.141 52.8047 158.16 52.7967 158.18 52.7967C158.501 52.7677 158.81 52.6636 159.083 52.4931C159.356 52.3225 159.585 52.0902 159.752 51.8148C159.755 51.8058 159.761 51.7976 159.768 51.7909C159.775 51.7842 159.784 51.7789 159.793 51.7756C159.802 51.7722 159.812 51.7708 159.822 51.7714C159.831 51.772 159.841 51.7746 159.85 51.7791C159.859 51.7834 159.867 51.7895 159.874 51.797C159.881 51.8045 159.886 51.8133 159.889 51.8229C159.893 51.8325 159.894 51.8426 159.893 51.8527C159.893 51.8628 159.89 51.8727 159.885 51.8818C159.739 52.1353 159.542 52.3555 159.306 52.5285C159.07 52.7014 158.801 52.8232 158.515 52.886Z" fill="#263238"/>
<path d="M159.515 48.3334C159.488 48.3397 159.46 48.3389 159.433 48.3311C159.407 48.3232 159.382 48.3087 159.363 48.2888C159.234 48.1471 159.073 48.0375 158.895 47.9686C158.716 47.8996 158.523 47.8733 158.332 47.8915C158.312 47.8961 158.292 47.8965 158.272 47.8928C158.252 47.8891 158.233 47.8814 158.217 47.8701C158.2 47.8588 158.186 47.8442 158.175 47.8271C158.164 47.8101 158.157 47.791 158.154 47.771C158.15 47.7514 158.15 47.7312 158.154 47.7115C158.158 47.6919 158.166 47.6733 158.177 47.6567C158.188 47.6401 158.202 47.6259 158.219 47.6148C158.236 47.6038 158.254 47.5962 158.274 47.5925C158.515 47.5638 158.759 47.593 158.987 47.6776C159.214 47.7622 159.418 47.8998 159.582 48.079C159.596 48.0928 159.608 48.1094 159.616 48.1278C159.624 48.1462 159.628 48.1661 159.628 48.1861C159.628 48.2062 159.624 48.226 159.616 48.2444C159.608 48.2629 159.596 48.2795 159.582 48.2932C159.563 48.3114 159.54 48.3251 159.515 48.3334Z" fill="#263238"/>
<path d="M154.431 48.8378C154.403 48.8487 154.371 48.8487 154.342 48.8378C154.304 48.8246 154.273 48.797 154.256 48.7611C154.238 48.7251 154.235 48.6837 154.248 48.6458C154.322 48.4161 154.45 48.2076 154.622 48.0382C154.794 47.8687 155.004 47.7434 155.235 47.6728C155.274 47.6628 155.315 47.6686 155.35 47.6891C155.385 47.7096 155.41 47.7431 155.42 47.7822C155.43 47.8212 155.424 47.8627 155.404 47.8974C155.383 47.9322 155.35 47.9573 155.311 47.9674C155.128 48.0236 154.962 48.1239 154.827 48.2593C154.693 48.3947 154.594 48.5612 154.538 48.744C154.53 48.7674 154.516 48.7883 154.497 48.8047C154.478 48.8211 154.456 48.8325 154.431 48.8378Z" fill="#263238"/>
<path d="M162.876 47.5434C162.876 47.5434 160.644 46.7266 159.627 45.4322C159.627 45.4322 157.6 45.9634 157.185 46.7712C156.996 46.609 156.873 46.3824 156.841 46.1352C156.809 45.8879 156.869 45.6375 157.011 45.4322C157.011 45.4322 155.493 45.7536 155.194 46.7712C154.948 46.6538 154.745 46.4604 154.617 46.2194C154.488 45.9784 154.44 45.7025 154.48 45.4322C154.48 45.4322 153.806 45.6867 153.588 46.7712C153.588 46.7712 151.914 43.2809 157.444 42.2811C157.026 42.1391 156.587 42.0653 156.145 42.0624C156.145 42.0624 160.006 40.5047 163.063 41.9285C166.121 43.3523 165.59 46.1107 162.876 47.5434Z" fill="#263238"/>
<path d="M176.748 89.713L171.392 90.4271C171.392 90.4271 169.183 74.9884 168.21 70.0029V59.3623L171.008 58.6259L173.177 59.3623C173.772 61.5031 174.23 63.6797 174.547 65.8788C174.811 67.5481 175.047 69.3334 175.257 71.141C175.547 73.6048 175.788 76.1132 175.994 78.4609C176.315 82.2503 176.529 85.6022 176.645 87.6509C176.712 88.9363 176.748 89.713 176.748 89.713Z" fill="#BC63F2"/>
<path d="M168.214 69.9939C168.214 69.9939 168.66 62.4822 171.013 58.608C171.013 58.608 170.954 57.5011 170.486 57.3225C170.017 57.144 168.214 58.2152 168.214 58.2152C168.214 58.2152 167.094 57.4475 166.848 57.8046C166.603 58.1617 166.005 60.5362 168.214 69.9939Z" fill="#BC63F2"/>
<path opacity="0.7" d="M168.214 69.9939C168.214 69.9939 168.66 62.4822 171.013 58.608C171.013 58.608 170.954 57.5011 170.486 57.3225C170.017 57.144 168.214 58.2152 168.214 58.2152C168.214 58.2152 167.094 57.4475 166.848 57.8046C166.603 58.1617 166.005 60.5362 168.214 69.9939Z" fill="white"/>
<path d="M156.038 91.7705L156.649 92.2169C156.649 92.2169 155.757 87.2403 156.123 74.6537C156.123 74.0466 156.163 73.462 156.185 72.904C156.632 62.2545 158.292 60.3174 158.417 60.2014L156.873 60.7281L154.074 61.6922C153.231 70.775 156.038 91.7705 156.038 91.7705Z" fill="#BC63F2"/>
<path d="M156.279 71.0696C156.279 71.0696 154.735 63.7676 155.194 61.2503C155.654 58.733 157.301 59.8533 157.301 59.8533C157.301 59.8533 158.814 58.6303 159.265 59.9782C159.265 59.9782 157.185 61.4422 156.279 71.0696Z" fill="#BC63F2"/>
<path opacity="0.7" d="M156.279 71.0696C156.279 71.0696 154.735 63.7676 155.194 61.2503C155.654 58.733 157.301 59.8533 157.301 59.8533C157.301 59.8533 158.814 58.6303 159.265 59.9782C159.265 59.9782 157.185 61.4422 156.279 71.0696Z" fill="white"/>
<path opacity="0.2" d="M175.248 71.1232C172.963 69.8422 172.659 66.4992 172.659 66.4992C172.798 66.4456 173.646 66.1555 174.539 65.8609C174.802 67.5302 175.038 69.3155 175.248 71.1232Z" fill="black"/>
<path opacity="0.2" d="M164.072 114.511L165.996 104.045L165.625 98.5057C165.625 98.5057 162.987 108.111 164.072 114.511Z" fill="black"/>
<path opacity="0.2" d="M176.636 87.633C175.199 87.5348 173.958 87.4411 173.958 87.4411L173.686 81.5986C174.134 81.3183 174.672 81.2193 175.19 81.3219C175.543 80.3885 175.811 79.4249 175.989 78.443C176.302 82.2324 176.52 85.5888 176.636 87.633Z" fill="black"/>
<path d="M177.127 78.4386L174.329 82.9331L176.543 84.2052L179.172 80.1569L177.127 78.4386Z" fill="#E4897B"/>
<path d="M173.057 59.2909C174.94 59.4962 182.947 70.4849 183.3 73.7967C183.653 77.1085 178.596 82.826 178.596 82.826L175.221 80.8398C175.221 80.8398 178.649 75.5686 178.828 74.1448C179.006 72.721 172.557 66.9678 172.557 66.9678C172.069 65.6425 171.801 64.2465 171.762 62.8348C171.673 60.4156 173.057 59.2909 173.057 59.2909Z" fill="#BC63F2"/>
<path d="M173.682 81.6031C173.682 81.6031 176.56 82.219 177.721 84.0311C177.721 84.0311 176.516 87.8026 175.654 88.2133C174.793 88.6239 172.659 88.6239 172.659 88.6239C172.659 88.6239 172.521 84.4284 173.682 81.6031Z" fill="#BC63F2"/>
</svg>
