<svg width="20" height="18" viewBox="0 0 22 26" fill="none" xmlns="http://www.w3.org/2000/svg">
<path d="M15.3334 0H6.66675C5.47508 0 4.50008 0.975 4.50008 2.16667V19.5C4.50008 20.6917 5.47508 21.6667 6.66675 21.6667H19.6667C20.8584 21.6667 21.8334 20.6917 21.8334 19.5V6.5L15.3334 0ZM19.6667 19.5H6.66675V2.16667H14.2501V7.58333H19.6667V19.5ZM2.33341 4.33333V23.8333H19.6667V26H2.33341C1.14175 26 0.166748 25.025 0.166748 23.8333V4.33333H2.33341ZM8.83341 10.8333V13H17.5001V10.8333H8.83341ZM8.83341 15.1667V17.3333H14.2501V15.1667H8.83341Z" fill="#F8F8F8"/>
</svg>
