<svg width="16" height="14" viewBox="0 0 22 20" fill="none" xmlns="http://www.w3.org/2000/svg">
<path d="M8.04787 17.5833H13.952L13.4104 15.4167H8.58954L8.04787 17.5833ZM7.74996 13.25H14.25C15.7486 13.25 17.0262 12.7217 18.0828 11.6651C19.1394 10.6085 19.6673 9.33122 19.6666 7.83333C19.6666 6.33472 19.1383 5.05711 18.0817 4.0005C17.0251 2.94389 15.7478 2.41595 14.25 2.41667H7.74996C6.25135 2.41667 4.97374 2.94497 3.91713 4.00158C2.86051 5.0582 2.33257 6.33544 2.33329 7.83333C2.33329 9.33195 2.8616 10.6096 3.91821 11.6662C4.97482 12.7228 6.25207 13.2507 7.74996 13.25ZM11 10C10.4041 10 9.89388 9.78767 9.46921 9.363C9.04454 8.93833 8.83257 8.42844 8.83329 7.83333C8.83329 7.2375 9.04563 6.72725 9.47029 6.30258C9.89496 5.87792 10.4048 5.66595 11 5.66667C11.5958 5.66667 12.106 5.879 12.5307 6.30367C12.9554 6.72833 13.1673 7.23822 13.1666 7.83333C13.1666 8.42917 12.9543 8.93942 12.5296 9.36409C12.105 9.78875 11.5951 10.0007 11 10ZM5.04163 6.75C5.34857 6.75 5.60604 6.646 5.81404 6.438C6.02204 6.23 6.12568 5.97289 6.12496 5.66667C6.12496 5.35972 6.02096 5.10225 5.81296 4.89425C5.60496 4.68625 5.34785 4.58261 5.04163 4.58333C4.73468 4.58333 4.47721 4.68733 4.26921 4.89533C4.06121 5.10333 3.95757 5.36045 3.95829 5.66667C3.95829 5.97361 4.06229 6.23108 4.27029 6.43908C4.47829 6.64708 4.7354 6.75072 5.04163 6.75ZM3.41663 19.75C3.10968 19.75 2.85221 19.646 2.64421 19.438C2.43621 19.23 2.33257 18.9729 2.33329 18.6667C2.33329 18.3597 2.43729 18.1023 2.64529 17.8943C2.85329 17.6863 3.1104 17.5826 3.41663 17.5833H5.82704L6.39579 15.3083C4.60829 15.0014 3.1234 14.1481 1.94113 12.7484C0.758848 11.3488 0.167348 9.71039 0.166626 7.83333C0.166626 5.72083 0.90257 3.92864 2.37446 2.45675C3.84635 0.984862 5.63818 0.249278 7.74996 0.250001H14.25C16.3625 0.250001 18.1547 0.985945 19.6265 2.45783C21.0984 3.92972 21.834 5.72156 21.8333 7.83333C21.8333 9.71111 21.2418 11.3498 20.0588 12.7495C18.8758 14.1492 17.3909 15.0021 15.6041 15.3083L16.1729 17.5833H18.5833C18.8902 17.5833 19.1477 17.6873 19.3557 17.8953C19.5637 18.1033 19.6673 18.3604 19.6666 18.6667C19.6666 18.9736 19.5626 19.2311 19.3546 19.4391C19.1466 19.6471 18.8895 19.7507 18.5833 19.75H3.41663ZM11 12.1667C12.1916 12.1667 13.2118 11.7424 14.0604 10.8938C14.909 10.0451 15.3333 9.025 15.3333 7.83333C15.3333 6.64167 14.909 5.62153 14.0604 4.77292C13.2118 3.92431 12.1916 3.5 11 3.5C9.80829 3.5 8.78815 3.92431 7.93954 4.77292C7.09093 5.62153 6.66663 6.64167 6.66663 7.83333C6.66663 9.025 7.09093 10.0451 7.93954 10.8938C8.78815 11.7424 9.80829 12.1667 11 12.1667Z" fill="#F8F8F8"/>
</svg>
